<?xml version="1.0" encoding="UTF-8" standalone="no"?>
<svg
   xmlns:dc="http://purl.org/dc/elements/1.1/"
   xmlns:cc="http://creativecommons.org/ns#"
   xmlns:rdf="http://www.w3.org/1999/02/22-rdf-syntax-ns#"
   xmlns:svg="http://www.w3.org/2000/svg"
   xmlns="http://www.w3.org/2000/svg"
   xmlns:sodipodi="http://sodipodi.sourceforge.net/DTD/sodipodi-0.dtd"
   xmlns:inkscape="http://www.inkscape.org/namespaces/inkscape"
   inkscape:version="1.0 (4035a4fb49, 2020-05-01)"
   sodipodi:docname="earth.svg"
   id="svg10"
   xml:space="preserve"
   enable-background="new 0 0 1000 1000"
   viewBox="0 0 1000 1000"
   y="0px"
   x="0px"
   version="1.1"><defs
   id="defs14" /><sodipodi:namedview
   inkscape:current-layer="svg10"
   inkscape:window-maximized="0"
   inkscape:window-y="18"
   inkscape:window-x="0"
   inkscape:cy="541.12716"
   inkscape:cx="662.59496"
   inkscape:zoom="0.43453182"
   showgrid="false"
   id="namedview12"
   inkscape:window-height="731"
   inkscape:window-width="1366"
   inkscape:pageshadow="2"
   inkscape:pageopacity="0"
   guidetolerance="10"
   gridtolerance="10"
   objecttolerance="10"
   borderopacity="1"
   bordercolor="#666666"
   pagecolor="#ffffff" />
<metadata
   id="metadata2"> Svg Vector Icons : http://www.onlinewebfonts.com/icon <rdf:RDF><cc:Work
     rdf:about=""><dc:format>image/svg+xml</dc:format><dc:type
       rdf:resource="http://purl.org/dc/dcmitype/StillImage" /><dc:title></dc:title></cc:Work></rdf:RDF></metadata>
<g
   id="g8"><g
     id="g6" /></g>
<g
   transform="translate(-1.8441975,43.926671)"
   id="g146"><path
     d="m 494.43549,802.9203 c -134.36427,0 -243.30557,-108.9413 -243.30557,-243.30555 0,-134.36425 108.9413,-243.30556 243.30557,-243.30556 134.36424,0 243.30554,108.94131 243.30554,243.30556 0,134.36425 -108.9413,243.30555 -243.30554,243.30555 z m 197.1768,-263.71344 c 0.39723,-0.19861 0.59584,-0.54619 0.74481,-1.04272 0.29792,1.68824 1.0924,3.17785 2.33374,4.27026 0.0496,0.14896 -0.0496,0.0993 0.0496,0.34757 0.0993,0 0.19861,-0.0993 0.29792,-0.0993 1.29101,1.04273 2.87995,1.73789 4.61784,1.73789 2.73099,0 5.01507,-1.53928 6.35574,-3.67441 0.0993,0.0993 0.24827,0.24828 0.29792,0.34758 0,-0.24827 -0.0496,-0.49654 -0.0993,-0.7448 0.59586,-1.0924 0.99309,-2.28411 0.99309,-3.57511 0,-4.22061 -3.42613,-7.5971 -7.5971,-7.5971 -2.68132,0 -4.91576,1.43998 -6.25642,3.52545 -0.0496,-0.0496 0,-0.24827 -0.14896,-0.14896 0.19861,-0.59584 -0.34759,-2.03582 -1.1917,-3.62476 v 7.89502 c 0.0993,0.84413 -0.14896,1.63859 -0.39723,2.3834 z m -349.36692,-2.28409 c 0,-2.28408 -5.21369,-6.20676 -6.60401,-6.20676 0,-0.39724 -2.13512,-5.11438 -2.9296,-5.11438 0,-1.58895 -5.56126,-8.68949 -6.45504,-5.56128 -0.59585,1.98617 4.22061,4.71715 4.22061,7.0509 0.89378,0 4.6675,7.1502 5.4123,8.39156 8.2426,13.95283 -6.15711,4.41922 -6.15711,-1.48962 -1.83721,-0.89378 -4.76681,-7.94468 -4.76681,-9.83154 -1.09239,-0.84412 -4.27026,-7.64675 -4.022,-7.64675 0,-4.41922 -2.43304,-6.55435 -7.29915,-6.55435 -0.24827,-0.44689 -4.31992,-6.20678 -4.41924,-6.20678 0,-1.8372 -3.27717,-7.49778 -5.11437,-8.39155 0,-3.77372 -1.93651,-8.44122 -1.09239,-12.36389 0,-4.12131 -0.19861,-8.78881 -1.58893,-13.0094 -12.61217,27.26015 -19.86168,57.54921 -19.86168,89.62582 0,91.86025 58.29402,169.91665 139.82622,199.75882 0.0993,-7.54744 0.6455,-16.5845 2.3834,-16.5845 0,-1.14204 0.94343,-5.8592 1.8372,-5.8592 0,-2.87994 0.34757,-6.35574 0,-9.83152 -1.09239,-2.18478 1.43997,-4.96543 2.18477,-8.39156 4.22061,-2.13514 1.24137,-23.28781 4.41924,-23.28781 0,-10.57635 2.38339,-16.78314 0.69516,-26.61466 0.79445,0 -4.76681,-5.9585 -4.76681,-5.8592 -5.36265,0 -9.13637,-8.59017 -9.13637,-12.36389 -0.49655,-1.63859 -1.8372,-4.1213 -1.8372,-6.20677 1.24135,0 -7.69641,-13.00941 -7.69641,-12.76113 -4.71714,-2.63167 0.24828,-6.25643 0.74482,-10.57634 -4.07165,-1.34067 0.0496,-12.41355 1.8372,-12.41355 0.19863,-1.39032 0.89378,-2.33374 2.18478,-2.87994 0.89379,3.62474 5.16404,-1.78756 1.83722,-1.78756 0,-2.38339 -0.29793,-7.54744 0,-8.73914 0,-3.72406 -3.27718,-10.97358 -5.8592,-3.27717 -2.73098,-1.34067 -9.63291,-1.09239 -10.22877,-5.46196 0.44688,-2.13514 -3.92268,-6.50471 -5.46196,-7.29917 1.43998,-3.72407 -7.39847,-8.73914 -10.57634,-8.73914 0,-0.79447 -1.68825,-0.44688 -2.18479,-1.43997 -3.27718,0 -4.022,-4.36957 -7.69641,-4.36957 -4.2206,0 -8.49087,-2.87994 -12.41354,-2.87994 -1.291,-2.58202 -7.39848,-1.58893 -8.78879,-4.36957 -3.17787,0 -4.41922,-6.00817 -4.51854,-8.2426 -0.14896,-2.73098 -2.28409,-12.21494 -6.10746,-12.21494 z M 650.25033,414.92243 c -0.0496,0.0993 0.0496,0.0496 -0.0993,0.34757 0.24827,0 0.49655,0.24827 0.74481,0.34758 -0.19861,-0.24827 -0.39723,-0.44689 -0.64551,-0.69515 z m 4.61786,5.01506 c 0.54619,1.04274 0.94342,1.98618 0.79445,2.58202 0.5462,0 0.79448,-0.29792 1.24136,-0.39723 -0.69516,-0.74481 -1.39031,-1.43997 -2.03581,-2.18479 z m 13.208,69.2676 c 0.24828,-6.55435 -5.46195,-5.46195 -7.29916,-9.13637 -1.88687,0 -2.58202,-1.43997 -5.11439,-1.43997 -1.63859,-0.54618 -2.97924,-0.14896 -3.92267,1.1917 -3.92268,1.48964 -1.53928,-1.88686 -4.46889,-1.88686 0.14898,-3.77371 -1.34065,-4.7668 -5.51161,-4.36957 -2.3834,5.36266 -6.00816,8.54053 -5.46196,14.59834 1.7379,0.39723 1.43998,0.79447 1.09239,2.53236 2.33374,0.0993 16.43554,-0.74481 16.43554,-2.18478 0.49655,0 2.9296,5.01507 2.9296,0.74481 1.98617,0 2.97925,4.61784 7.69641,3.27718 0,0.89377 7.79569,-3.32684 3.62474,-3.32684 z m 0.74482,77.60951 c 0.29792,-1.34066 -0.64551,-1.93651 -1.43997,-3.27718 2.08547,0 -6.60401,-16.08795 -6.60401,-18.57066 -1.34067,-0.6455 -3.02891,-5.26335 -3.32683,-6.90194 -1.78756,-1.1917 -3.62476,-5.06472 -4.36958,-7.29915 -1.78754,-1.1917 -6.20676,-6.60402 -6.95158,-9.08673 2.63167,0.29792 6.55436,0.84412 6.55436,-2.53237 -1.78756,0 -2.03582,-2.18477 -0.34758,-2.18477 -0.5462,-2.23445 1.19169,-3.82338 1.58893,-5.61092 0.44689,-2.13513 1.34066,-5.36266 1.34066,-7.89503 -2.53236,0 -3.12821,0.44689 -5.11438,1.0924 0,1.48962 -4.46887,-0.34759 -5.11438,-0.34759 -0.94342,-1.93651 -7.89502,2.48272 -9.83153,-1.43997 -3.12822,-2.83029 -2.28409,-5.01507 -3.32683,-9.03706 -0.49654,-2.03582 -3.27718,-2.13513 -4.96542,-2.48271 -4.7668,-0.94343 -1.34066,5.66058 -1.58893,7.19987 2.92959,0 -1.83721,3.62474 -1.83721,5.46195 -4.91577,-1.04273 -3.27718,-6.55436 -6.20678,-7.99432 -0.84412,-1.43998 -0.19862,-2.53237 -2.18477,-2.53237 0,-1.93651 1.04272,-5.46196 -1.09241,-6.20677 0,-0.94343 -4.12129,-1.34066 -4.76679,-2.53236 -2.63167,0 -8.68949,-9.8812 -10.57635,-6.55435 -1.1917,2.13513 0.99309,2.63167 1.43998,4.36956 3.77372,-0.74482 3.42613,6.25642 8.04397,5.46196 0,0.99309 0.0993,1.98617 0.34758,2.92959 3.42614,-0.79446 3.02891,2.53237 4.76681,2.53237 -1.24136,1.63858 -5.2137,-2.63167 -4.12131,0.99308 0.64551,2.08548 0.29793,3.87303 -2.43304,5.95851 0,-2.2841 -0.19863,-8.39156 -2.53238,-8.39156 -1.58893,-3.22753 -6.40538,-2.43305 -8.44121,-5.46196 -1.63858,0 -2.28409,-5.11438 -5.11438,-5.46197 -0.54619,0.74481 -2.53236,1.43998 -3.27717,1.43998 -1.53928,3.07855 -10.22876,0.29792 -10.22876,0.74481 -0.14897,0.0496 -4.86611,11.56943 -5.16404,13.10871 -0.54619,3.27718 -3.17787,3.32684 -3.97234,6.45504 -0.39723,1.53928 -9.93083,0.84413 -9.93083,1.98617 -4.1213,-1.39031 -7.6964,-4.27026 -7.6964,-8.73914 -0.34759,0 0.79446,-11.47011 1.48962,-13.1087 0.84412,0.24827 0.99308,0.49653 1.48962,1.43996 2.53237,-0.94343 8.39157,0.6455 8.39157,-2.18478 2.43306,0.0496 3.17786,1.04274 2.18478,2.92961 2.28409,0.44687 6.20678,0.99307 6.20678,-2.18479 -1.34067,0 -1.48964,-0.0993 -1.48964,-1.43998 4.36958,-4.56818 -3.27717,-8.63983 -3.27717,-10.92391 -1.53928,-0.49655 -4.71714,-3.87304 -2.48271,-2.63168 1.88686,1.04274 8.83845,3.22752 6.10747,-1.39032 0.19861,-0.0496 0.29792,-0.19861 0.34757,-0.34758 0.79448,0.54619 4.022,3.92269 4.022,0.74482 0.89376,0 4.36957,-2.18479 1.43996,-2.18479 0.29794,-1.63858 0.19862,-3.0289 0.34759,-4.02199 4.61784,2.48271 2.03582,-1.68825 4.41922,-3.27718 0,3.02891 2.48271,-1.43997 4.022,-1.43997 1.78754,-2.68133 5.95849,-0.59585 6.95158,-3.6744 -2.23444,-0.74482 -1.83721,-6.30609 -1.83721,-8.34191 2.68132,0.44689 5.71023,-3.62476 6.10747,-0.84413 0.14896,1.0924 0.29791,4.07165 0.84411,4.46888 4.022,2.08548 2.9296,-1.1917 2.9296,-3.27717 -1.34066,0 -3.12821,-4.6675 -3.27717,-6.95159 -1.09239,0.14896 -2.87995,0.59585 -3.27719,1.43997 -3.97233,0 -6.7033,-1.43997 -9.83152,-1.43997 -0.24826,-0.49654 -4.02198,-4.7668 -3.62476,-4.7668 -2.23443,-3.82337 2.23445,-2.73098 2.9296,-2.87995 0,-3.62475 15.04522,-2.97925 15.74038,-8.73914 -4.96542,0 5.11438,-8.39155 5.11438,-8.34189 3.37649,-2.87995 5.16403,-5.36265 9.33499,-5.66059 1.78755,-0.0993 21.40096,-5.51161 21.40096,-3.07856 0.79447,0.0496 3.42613,0.0496 6.10746,0.14897 -38.03511,-35.60206 -88.78169,-57.30095 -144.74196,-57.30095 -54.17273,0 -103.47935,20.40788 -141.06757,53.77549 0.34756,0.74481 0.59584,1.48963 0.59584,1.98618 1.98618,-0.14897 4.86611,-1.39032 5.51162,1.09239 -0.99309,0 -1.98618,-0.14896 -2.9296,-0.39724 0.69516,5.66059 -2.48271,2.18479 -5.11438,2.18479 0,-0.14897 -1.1917,-0.59585 -2.43306,-0.94343 -0.79447,0.74481 -1.63859,1.48962 -2.48271,2.23444 0.0993,0.24827 -0.0496,0.24827 0.0993,0.5462 0.84412,0 0.39724,1.34066 2.83028,2.13513 2.8303,0.94342 5.90885,1.48961 8.8881,1.98616 2.3834,0.39723 3.77372,-0.44689 5.8592,-0.44689 0,-0.29792 5.01508,-2.53236 1.48963,-2.53236 0.49655,-1.98617 -0.39723,-2.53236 -2.58202,-2.53236 0.19861,-2.13513 5.26335,-0.74481 7.29917,-0.74481 1.58893,-2.68133 0.0496,-2.33375 1.43997,-4.76681 1.68823,-2.97925 3.67441,-0.39723 4.7668,-3.22752 1.63859,0.59585 3.12822,1.48962 3.67442,3.62475 1.34065,1.09239 8.04398,11.02323 8.04398,4.02199 2.3834,0.79447 3.62476,5.31301 3.67442,7.64675 4.36956,-0.64551 4.76679,-3.92268 4.76679,-7.29916 0.99308,0 -0.34757,-1.63859 -0.34757,-2.1848 1.63858,-0.59584 3.6744,1.53929 3.6744,-0.69515 0.69516,0 0.74482,0.69515 0.74482,1.43997 2.28408,0.44689 3.72406,-0.24827 5.11438,0.24827 0.94342,0.34758 0.44689,5.313 0.0496,7.0509 -0.5462,2.23444 -4.76681,2.23444 -4.76681,3.27718 -4.81645,3.57509 5.66058,5.46195 7.29918,7.64674 -0.99309,0 -4.76681,-0.49654 -4.76681,-0.69515 -2.38341,0 -8.1433,2.53235 -10.22876,0.69515 2.92959,0 3.92267,-3.52545 4.41922,-6.90193 -2.73098,-1.04274 -5.90885,0.6455 -6.70332,3.37648 -1.29101,4.46888 -4.22061,-0.19861 -5.71023,2.8303 -0.59585,0.19861 -5.85921,2.63166 -5.85921,1.78754 -5.90885,0.84412 -4.36956,5.8592 -4.36956,11.32116 2.33374,1.39032 7.1502,5.46196 6.95158,7.64674 5.313,0.94343 7.24952,1.48963 12.06597,2.18479 0.39725,0.79447 1.98618,1.48963 2.9296,1.78755 0,3.12821 2.8303,2.58201 5.46197,2.58201 0,-4.02199 4.66749,3.32684 5.11438,4.71715 -0.6455,0 1.09239,4.07166 1.43998,5.46197 -0.74481,-0.24827 -0.94344,0 -0.74481,0.74482 2.33374,0.84411 5.95849,0.59584 6.604,-1.83722 -2.23444,0 -1.48963,-2.53236 -1.48963,-4.02198 -2.28409,-1.53929 -1.93652,-4.46887 0.34758,-5.11438 0,2.08547 7.54744,-1.29101 3.27717,-2.87995 1.04275,-2.33374 1.7379,-5.90885 0.0496,-7.94467 -1.09238,-1.29101 -2.43305,0 -2.97925,-1.93651 2.87995,-0.69517 0.74482,-6.20677 0.74482,-8.73915 0.89377,-0.34757 3.27718,0.59586 3.27718,0 2.83028,0 7.49778,3.57511 9.13637,-0.7448 4.71714,2.13512 0.94343,4.17095 5.8592,2.53237 0,1.14204 5.5116,6.55435 6.20676,6.55435 0,0.24826 -0.14896,1.8372 1.09239,1.8372 0,1.1917 -0.7448,-0.6455 -0.7448,1.43997 0.69515,0.0993 4.41922,0.74481 4.41922,-0.69515 2.33375,0 4.02198,-2.87996 4.02198,-5.11439 1.48963,-0.94343 4.07165,7.99432 5.8592,7.99432 1.29101,2.03583 5.51162,5.01507 5.51162,6.90194 0.89378,0.89378 1.78754,0.6455 1.78754,3.27718 1.0924,0 3.27718,-4.36957 3.27718,-0.34759 1.04274,0 4.022,2.23444 4.41923,4.02199 -2.63167,0 -0.14897,2.53237 -1.48962,2.53237 0,2.53236 -5.66059,0.49653 -6.90194,0.34758 -1.73789,7.84536 -12.31424,2.18478 -18.66998,4.22061 -3.37649,1.04273 -9.83153,8.49087 -10.17911,12.16528 4.07165,0.0496 5.8592,-3.52546 9.48395,-4.76681 2.97925,0 3.52545,-1.78754 6.20677,-2.53237 0,0.74483 0.74482,0.34759 0.74482,1.09239 -5.21369,0 -2.03582,3.37649 -0.49654,5.80955 0.94343,1.53928 2.03583,2.23444 3.22753,2.73098 -0.49655,0.89378 -0.89379,1.78754 -1.24136,2.73098 0,0 0,0 0,0 -0.99309,0.34758 -2.92961,1.04274 -3.27718,1.83721 -5.90886,0.64551 -2.97925,0.24826 -2.58201,-1.14206 0.19861,0.49655 2.33374,0.0496 2.23443,0.0496 -0.34758,-1.78756 -0.89378,-1.53928 -0.34758,-2.53237 -3.17788,0 -4.76681,1.43997 -7.29916,1.43997 -0.44689,0.84412 -2.68132,2.9296 -3.67441,2.9296 -0.74482,2.23444 -2.43307,6.35574 -4.41923,7.64674 0,-0.59585 -5.21369,3.27717 -4.7668,3.27717 -1.14205,1.88687 -2.43306,1.78757 -2.9296,4.71716 -0.34759,0.19861 -1.83721,5.06474 -1.83721,5.80954 -2.28409,1.48963 -3.07855,7.64675 -6.95158,7.64675 -2.33376,4.66749 -6.60402,4.07164 -6.60402,10.1791 1.43998,1.43998 1.98618,7.94468 2.43307,9.98051 0.54619,2.58201 1.39032,5.26334 -2.03583,5.31299 -0.24826,-0.39724 -2.63167,-4.02199 -2.18478,-4.02199 0,-1.48964 -1.8372,-6.30609 -2.92959,-7.84536 -1.43998,-2.03583 -4.12131,0.29792 -6.20679,-0.54619 -0.89377,-1.78756 -6.95158,-2.1848 -9.13637,-2.1848 0.34759,1.34066 1.34067,1.78756 1.43998,3.27718 -1.78755,0.74481 -2.8303,1.53928 -4.6675,1.29101 -3.17787,-0.44688 -2.78063,-2.9296 -6.30609,-2.58202 -5.61092,0.54619 -9.48395,5.21369 -9.48395,10.77496 -0.64551,0 -0.64551,10.92393 0,10.92393 0,3.07855 2.53237,5.31299 2.53237,7.64674 2.48271,0 5.26334,5.46196 7.6964,5.46196 0.29792,1.93652 -1.24136,2.23444 2.92959,2.18479 0,-0.19862 2.23445,-1.39031 2.53237,-2.9296 -2.87994,-0.69516 0,-4.36957 1.83721,-5.11438 0,2.58202 3.62475,-0.84411 3.62475,-1.09239 0.39724,-0.14897 4.022,-1.43998 4.022,-1.43998 0,-2.9296 2.73098,0.29792 0.74481,1.43998 -1.98617,0 -1.83721,3.27717 -2.92961,3.27717 -0.44687,2.33376 -1.39031,4.36957 -1.93651,6.65367 -0.69515,2.83028 1.58895,3.07855 0.84413,5.71023 2.87995,0.54619 5.85919,0 8.78879,0 0,-0.49655 -0.0993,-1.04275 -0.34758,-1.43997 4.22061,0 0.34758,7.99432 2.9296,7.99432 0,3.02891 1.43997,5.36265 1.43997,7.29917 1.98617,1.291 3.17787,3.07856 2.53236,5.46195 2.43307,0.29794 7.64675,0.94344 7.64675,-2.18477 3.67441,0 3.97234,2.53236 3.67441,5.11438 7.34882,0 2.73098,-7.29917 5.80954,-7.29917 0.29792,-1.1917 0.79447,-1.39032 1.48963,-0.6455 1.48962,0.79446 2.63167,-1.48963 3.82337,-2.23444 0.39724,-0.24828 1.7379,-1.04274 1.98617,-1.04274 1.04273,0.6455 1.14205,0.44689 1.58894,1.14205 1.98616,0 4.02198,-1.14205 5.75987,-2.33375 2.63168,0.29792 1.78757,5.9585 6.70333,6.30608 1.98616,0.14897 6.55435,0.69516 8.2426,-0.49654 0.44688,-0.29793 1.98616,0.99308 2.13512,1.53927 1.63859,0 1.53928,1.43998 2.23444,1.39032 0.14897,0.29793 0.39723,0.44689 0.74482,0.34758 0.19861,0.64551 1.53927,0.79447 2.18478,2.53237 0,1.58893 3.27717,1.83721 3.27717,2.87995 2.33375,1.1917 -0.79446,1.48961 2.83029,2.58201 1.98618,0.64551 3.82338,1.63859 5.95851,1.78755 0.69515,-2.58202 2.87994,0.34758 4.022,0.34758 0.59584,1.1917 0.89376,0.29792 1.43995,1.43997 3.3765,2.83028 1.14205,1.7379 2.53238,4.76681 1.63858,1.04274 2.13512,4.7668 2.58202,6.90193 -1.29102,0 -0.39725,5.01507 -0.39725,5.46196 -1.58893,0 4.022,2.97925 4.022,-0.74481 2.33374,0.39723 3.82338,2.87994 5.46196,2.87994 -0.94343,2.18479 2.53237,3.87302 2.53237,0.39723 3.47579,0.34758 2.53235,5.51162 2.18478,7.29917 2.58201,0 3.32683,-1.43997 5.51161,-1.68825 2.3834,-1.48962 5.01507,-2.58202 7.99433,-2.58202 8.39155,0 15.19418,6.80263 15.19418,15.19419 0,7.5971 -5.66057,13.55559 -12.91009,14.74729 -0.99309,1.0924 -1.8372,2.08548 -1.93652,2.08548 0,0.74481 -0.14896,7.99433 -0.39722,7.99433 0,1.43997 -1.09239,9.48396 -2.18479,9.48396 0,4.12129 -2.68132,4.86611 -3.67441,8.73913 -2.23443,1.63858 -8.2426,4.36957 -9.13637,6.20677 -1.73789,0 -2.97926,1.43998 -4.76681,1.43998 -0.24827,0.49654 -3.97234,4.02198 -3.27718,4.02198 -0.29792,2.58201 0.19863,8.68949 -1.19168,10.37773 -0.94344,1.14204 -2.28411,0.99309 -1.68826,2.78063 -2.03582,0 0.0993,1.43998 -3.12821,1.43998 -2.03582,0 -5.66058,2.87994 -5.75988,5.36265 -0.14897,3.0289 -0.94344,5.16403 -3.52546,7.00124 0,1.04274 -4.7668,1.34066 -4.7668,4.02199 0.44689,0 0,4.96543 0,5.46197 -1.39031,-0.0497 -4.86611,1.39031 -5.46196,2.53236 -4.7668,0 -4.2206,0.49654 -7.29916,2.53236 0,0.6455 -0.44689,2.87994 -1.0924,2.87994 0,3.67441 -2.63166,0.34758 -4.7668,2.18478 0.84412,0 1.88686,3.62477 1.43997,3.62477 0,3.22752 -1.98616,3.47579 -4.02199,5.85919 -0.94343,0.6455 -1.88686,3.27718 -2.53236,3.27718 0,2.13513 -1.0924,4.12129 -1.0924,6.20677 0.44689,0 0.0496,0.94343 0.34759,1.78756 1.04273,-0.29793 1.04273,-1.43998 1.43997,-1.43998 0,-1.8372 2.87994,1.09239 1.09238,1.09239 -1.48962,2.2841 -3.12821,2.33375 -4.02198,5.46197 -0.89378,0 -1.68825,0.89377 -2.3834,1.9365 17.92516,4.86612 36.69445,7.74606 56.20854,7.74606 74.87853,0 140.62068,-38.73026 178.55649,-97.22292 0.24828,-5.36265 1.04273,-10.52668 1.63859,-12.31422 1.48962,1.09239 2.58202,3.1282 3.67441,0 -2.63168,-0.49655 -1.98617,-1.43998 -1.09239,-3.62477 0.99307,0.59586 3.02891,1.34066 4.66749,1.24136 0.49655,-0.94343 0.89377,-1.93652 1.39031,-2.87994 -1.48963,-1.14205 0.54619,-4.17096 1.29101,-2.68133 0.39724,-0.74482 0.69516,-1.48963 1.04275,-2.23444 -0.14898,-0.0497 -0.0993,0.0496 -0.34759,0 0,-1.34066 0.24827,-1.14205 1.0924,-1.83721 0,0.14896 0,0.14896 0.0496,0.24828 13.25768,-27.80635 20.95408,-58.74092 20.95408,-91.61199 0,-1.0924 -0.14897,-2.13513 -0.14897,-3.17787 -0.39723,1.48963 -1.14204,3.07856 -2.18477,3.47578 0,0.94344 -10.87428,5.71024 -10.22876,7.64676 -1.93652,0 -8.63984,1.9365 -9.8812,4.36957 -1.34065,0 -6.80262,1.93651 -7.29916,2.92959 -6.65367,0.34758 -5.36265,-7.6964 -8.63983,-7.6964 z m 30.88491,-83.22043 h -8.09363 c -0.0496,-0.0993 -0.0993,-0.0993 -0.19863,-0.19862 -0.39723,0 -2.13512,-3.87302 -1.43996,-4.7668 0.6455,0 0.94343,0.0496 1.291,0.0993 -0.69516,-1.68825 -1.43997,-3.32684 -2.18479,-4.96543 -1.63859,1.14205 -3.07854,2.53236 -5.36265,2.68133 0,0.64551 -3.22752,6.90193 0,6.90193 0,0.0993 0.0496,0.19862 0.0993,0.29793 -3.87304,0.34758 -6.95158,3.52544 -6.95158,7.49778 0,4.22061 3.42613,7.59709 7.59708,7.59709 h 2.97924 c 0.19864,1.39032 0.94344,2.58202 3.57511,3.17787 0.84412,3.52546 7.10055,4.7668 8.04399,1.09239 -2.63168,0 -1.78756,-2.53236 -1.53929,-4.27026 h 2.13513 c 4.17095,0 7.59709,-3.42613 7.59709,-7.59709 0,-4.17095 -3.32683,-7.54744 -7.54743,-7.54744 z m -22.14577,98.86151 c 0.54619,0.0496 4.02198,-0.0496 4.02198,-0.69516 3.17787,0 7.49778,-0.44689 10.57635,-1.48963 0,4.71715 -3.97234,7.34882 -3.27718,12.01632 -2.63167,0 -1.48962,2.73098 -1.48962,3.62475 -1.68825,1.04274 -1.98617,2.97925 -4.02199,4.022 0,2.13513 -4.76681,5.61092 -6.15713,7.39846 -1.58893,2.03582 -6.35574,5.51163 -6.95158,8.09365 0.14896,-0.59587 -8.68949,9.23567 -6.65366,9.23567 0,1.8372 -2.48271,16.38588 0.74481,16.38588 0,1.29102 2.73097,13.50594 1.09238,13.50594 0,3.92269 -2.53235,6.30608 -2.53235,9.4343 -1.24135,0.84412 -3.02891,1.34067 -3.62475,2.58202 -2.23445,0 -3.32684,4.76681 -4.36958,4.76681 0,5.06472 -1.48962,8.83844 -1.48962,14.54867 0.39723,0 -2.9296,8.19294 -2.9296,8.73914 -2.68132,1.78754 -9.48395,8.29226 -9.48395,11.66874 0,0 -4.76681,6.65366 -5.46196,7.64674 -1.43998,0 -12.4632,2.08547 -12.4632,2.92961 -2.33375,0 -8.39157,1.8372 -9.83153,-0.34759 0,-2.33375 -1.24136,-5.26334 -1.43998,-8.39156 -1.14204,0 -1.29101,-4.71715 -2.53235,-4.71715 0,-0.99307 -7.00124,-14.94591 -5.8592,-14.94591 0,-1.43998 -1.24136,-6.20677 -1.43998,-6.20677 0,-5.01508 -3.67442,-9.18603 -3.67442,-13.85353 -1.09238,0 -3.32682,-10.1791 -2.18477,-10.1791 0,-5.36265 1.88686,-8.83845 2.63167,-14.79695 0.84412,-6.5047 -0.39724,-10.47704 -1.53928,-15.09488 -0.6455,0 -2.73098,-3.4758 -2.92959,-4.36957 -2.92961,-1.93651 -4.022,-5.80953 -4.022,-9.4343 1.93652,-2.18477 2.68132,-10.42738 2.18479,-13.10871 -3.67442,-1.73789 -5.16403,-1.09239 -9.13637,-1.09239 -2.33374,-4.71714 -18.17344,-1.78754 -22.69196,-1.78754 0,2.58202 -11.02324,-0.49655 -12.06597,-2.53237 -2.68132,0 -8.04398,-5.71023 -8.04398,-8.39156 -2.92961,-1.98617 -7.64676,-11.71838 -7.64676,-14.94591 -2.53235,-1.29101 -1.78754,-6.20678 -0.39722,-6.20678 0.34758,-1.39031 -0.89378,-5.71023 -1.48963,-7.74605 -0.44689,-1.53928 1.48963,-3.17786 1.48963,-5.01507 0,-5.06473 0.0993,-7.39848 2.97924,-12.86044 0.89378,-1.68824 2.03583,-3.27719 2.87995,-5.41231 1.53927,-3.82337 1.98616,-0.19862 4.02199,-3.5751 1.98617,-0.99308 3.07857,-4.2206 5.11438,-5.80954 0.89377,-1.1917 0.89377,-1.63858 0,-2.53236 0.39723,0 2.53236,-5.61092 2.53236,-6.90194 2.87996,-3.97233 0.84412,-2.13513 3.67441,-1.8372 1.04275,-1.14204 2.73099,-4.022 4.36958,-4.022 0.69516,-1.39031 2.53236,-2.18478 4.02198,-2.18478 0,2.18478 5.95851,-0.69516 6.60401,-0.69516 1.04274,-2.03582 7.5971,-4.36956 9.13637,-4.36956 0,-2.48271 12.95975,0.69515 14.99557,0.34758 0,-0.34758 0,-0.74482 0,-1.0924 2.78063,0.64552 7.79571,11.76805 7.29917,14.20111 2.13513,0 4.12129,-0.34759 5.51161,0 0,2.33374 4.41922,2.9296 6.45505,3.02891 2.83029,0.14895 11.07288,-0.29794 11.07288,-4.12131 2.18479,0 4.1213,1.53929 3.67441,4.022 2.48271,0.29792 17.13069,0.54619 16.08796,3.62475 2.13513,0 2.68132,3.67441 4.76679,3.67441 -0.39723,2.53236 2.53238,9.08671 4.76681,9.08671 0,2.18479 1.39032,6.20678 3.27718,7.64674 1.04274,3.12822 4.46888,9.73223 7.64674,11.66874 -1.39031,2.58202 2.08547,4.71715 2.92961,7.29917 -0.19862,0 0.74481,3.82338 1.78754,4.36958 0,2.58201 5.46196,13.10869 8.44122,13.10869 0.14895,1.24137 -2.83029,1.78757 1.04274,2.08549 z m -78.95017,-81.58185 c 0.5462,-2.18478 1.8372,-0.49654 3.0289,-0.0993 2.83029,0.89378 1.83721,-0.0496 3.92268,-0.99309 0,5.95851 -3.37648,1.43998 -6.95158,1.09239 z m -7.69641,-10.92392 c 1.48963,0 1.88687,6.70331 -2.18478,5.46197 0,-1.63859 -1.04273,-4.71716 1.0924,-4.71716 0.6455,2.58203 1.09238,1.48963 1.09238,-0.74481 z m -1.78754,-4.36956 c 1.68824,0.74481 2.43305,0.49653 2.18477,-0.74482 2.23445,0.74482 -0.29791,2.33375 -0.7448,4.022 -1.14205,-1.14205 -0.79447,-1.53929 -1.43997,-3.27718 z m -39.12751,-32.4242 c -3.5751,-0.94343 3.67441,-1.98617 4.022,-2.87993 -1.19171,0 -2.03582,-1.24137 -1.58893,-2.33376 0.54619,-1.24135 1.43995,1.48962 2.68132,0.89378 1.48963,-0.14897 4.36956,-2.33374 2.87994,1.88686 -1.53929,4.31991 -2.87994,7.49779 -8.39156,7.54743 -1.93651,-1.98616 -0.0496,-3.02891 0.39723,-5.11438 z m 13.55559,-14.94591 c 2.92961,0 0.34759,2.18478 -0.29792,2.18478 0.49655,0.19862 -0.0993,1.98617 -0.0993,2.53237 2.73098,-0.0496 2.78063,-1.68825 4.7668,-2.18479 -0.39723,2.43306 -3.12821,2.9296 -0.44689,5.01507 1.39031,1.09239 2.87994,2.43307 2.2841,4.1213 3.4758,0 4.02199,3.32683 3.27718,7.29918 1.93651,0 1.83721,0.0993 1.83721,-1.83721 1.88685,0.49654 1.73788,2.18478 0,2.18478 -1.73791,3.42614 -6.25643,3.27718 -9.48396,3.27718 -0.0496,-2.63168 -0.54619,-2.83029 -2.97926,-2.08547 -3.32683,1.04273 -0.74481,-2.68133 -0.6455,-4.46888 0.34758,0 7.59709,0.34757 3.27718,-1.0924 -0.24827,-3.92268 -1.0924,-5.11438 -4.76681,-5.11438 0,-2.68132 -0.94342,-2.48271 -1.39031,-5.4123 -0.6455,-4.31992 3.37649,0.29792 4.6675,-4.41923 z m -1.14204,23.68505 c 0,0.89377 -1.8372,1.58893 -2.18479,0.34759 0.34759,0.0993 0.49655,0 0.34759,-0.34759 0.6455,0 1.24136,0 1.8372,0 z M 532.4706,422.76778 h -15.19419 c -4.22061,0 -7.5971,-3.42613 -7.5971,-7.59709 0,-4.17094 3.42615,-7.59709 7.5971,-7.59709 h 15.19419 c 4.2206,0 7.59709,3.42615 7.59709,7.59709 0,4.17096 -3.42615,7.59709 -7.59709,7.59709 z m -88.63275,134.56287 c 0.84413,0 1.83721,0.34758 1.83721,1.09239 -1.09238,0 -2.53236,1.04274 -1.83721,-1.09239 z m -13.85351,0.74482 c -0.59585,1.14205 -5.51162,0.94342 -6.20677,-0.39724 1.8372,0 3.22752,0.74481 5.11438,0 0,-0.99308 -0.84413,-1.78755 -1.43997,-2.87993 1.98616,0 4.2206,1.53926 6.95158,1.43996 0,-1.68824 -0.74482,0.34758 0,-1.83721 1.14204,0.29793 3.87303,2.87995 4.02199,4.02199 -4.02199,-0.39722 -4.22061,-0.34757 -8.44121,-0.34757 z m -16.08796,-8.73915 c -1.88686,0 -5.46197,-1.63859 -6.60401,-3.27717 1.78756,0.0993 3.62476,0.84413 4.7668,-1.09239 4.61785,0.44689 5.06473,3.67441 8.7888,3.67441 0.69515,1.24135 4.66748,4.07165 0.84412,4.41922 -2.9296,0.24827 -6.55435,-1.34066 -7.79571,-3.72407 z m 2.92959,10.17912 c -1.34065,0 -3.5751,0.59584 -2.53236,-2.18479 1.78756,0.24828 2.63167,0.99309 2.53236,2.18479 z m 2.53238,-0.34758 c -0.74482,0.0993 -1.43998,0.24827 -2.18479,0.34758 0.24827,-1.68825 1.8372,-3.5751 2.18479,-0.34758 z m 13.55559,16.03831 c -0.29793,1.04274 -0.24827,1.09239 -1.43998,1.09239 0.0993,-0.44689 0.24828,-0.94343 0.34758,-1.43998 0.34759,0.0993 0.69516,0.19862 1.0924,0.34759 z M 399.9932,544.96676 c 0.34758,0.0993 0.74481,0.24828 1.0924,0.34758 0.44689,1.78755 1.43997,0.89378 2.53236,0.34758 0.0496,2.13514 -4.86611,2.73098 -3.62476,-0.69516 z"
     id="path4"
     style="stroke-width:0.496542" /><g
     id="g52"
     transform="matrix(1.0584751,0,0,0.71929354,-28.52596,46.288173)"><g
       id="g20"><path
         id="path18"
         d="m 854.6,538.7 h -6.5 v -32.9 c 15.4,-8.9 25.8,-25.4 25.8,-44.4 0,-206.2 -167.7,-373.9 -374,-373.9 -206.2,0 -374,167.8 -374,374 0,19.1 10.4,35.5 25.8,44.4 v 32.9 h -6.5 C 70.7,538.7 48.458224,604.36886 48.458224,689.66886 v 51.6 C 48.458224,826.56886 70.7,899.7 145.4,899.7 h 60.3 l 5.3,5.3 c 5,5 11.6,7.5 18.2,7.5 6.6,0 13.2,-2.5 18.2,-7.5 5.9,-5.9 8,-14 6.9,-21.8 4.5,-6.3 7.1,-13.9 7.1,-22.2 V 577.3 c 0,-21.4 -17.3,-38.7 -38.7,-38.7 h -19.3 v -32.9 c 15.3,-8.9 25.8,-25.4 25.8,-44.4 0,-149.3 121.5,-270.8 270.8,-270.8 149.3,0 270.8,121.5 270.8,270.8 0,19.1 10.4,35.5 25.8,44.4 v 32.9 h -19.3 c -21.3,0 -38.7,17.3 -38.7,38.7 V 861 c 0,8.3 2.7,16 7.1,22.2 -1.1,7.7 1,15.8 6.9,21.8 5,5 11.7,7.5 18.2,7.5 6.5,0 13.2,-2.5 18.2,-7.5 l 5.3,-5.3 h 60.3 c 74.6,0 99.08185,-70.18705 99.08185,-155.48705 v -51.6 C 953.68185,607.31295 929.3,538.7 854.6,538.7 Z"
         sodipodi:nodetypes="sccssscccssscssscsssccsssccsssccsscssss" /></g><g
       id="g22" /><g
       id="g24" /><g
       id="g26" /><g
       id="g28" /><g
       id="g30" /><g
       id="g32" /><g
       id="g34" /><g
       id="g36" /><g
       id="g38" /><g
       id="g40" /><g
       id="g42" /><g
       id="g44" /><g
       id="g46" /><g
       id="g48" /><g
       id="g50" /></g></g></svg>
