<?xml version="1.0" encoding="utf-8"?>
<!-- Generator: Adobe Illustrator 21.0.0, SVG Export Plug-In . SVG Version: 6.00 Build 0)  -->
<svg version="1.1" id="Layer_1" xmlns="http://www.w3.org/2000/svg" xmlns:xlink="http://www.w3.org/1999/xlink" x="0px" y="0px"
	 viewBox="0 0 595.3 841.9" style="enable-background:new 0 0 595.3 841.9;" xml:space="preserve">
<style type="text/css">
	.st0{fill:#FFFFFF;}
</style>
<g>
	<g>
		<path class="st0" d="M0,153.8c198.6,0,397.2,0,595.8,0c0,178.4,0,356.9,0,535.3c-198.6,0-397.2,0-595.8,0C0,510.7,0,332.3,0,153.8
			z M574,608.6c0.4-0.3,1-0.4,1.2-0.8c1.3-2.1,2.5-3.8,5.4-4.1c1.9-0.2,3.8-1.4,4.5-3.8c1.8-6.4,0.2-12.8,0-19.3
			c-0.1-2.8-0.9-6.1,0.2-8.3c3.3-6.3-0.1-17.6-6.5-21c-4.6-2.4-9.6-2.3-14.4-1.4c-5.3,1.1-10.5,2.7-15.8,4.2
			c-3.1,0.9-4.2,2.4-3.9,5.6c0.1,0.8,0.2,1.6,0.2,2.3c0.4,3.8,0.7,7.5-2.7,10.2c-0.5,0.4-0.6,1.3-0.8,1.9c-1.2,4-0.7,8.5-3.5,12.1
			c-0.3,0.4-0.4,1.1-0.5,1.7c-0.5,3.3-2.6,5.2-5.9,5.1c-2.3-0.1-4.6-0.1-6.8-0.2c-2.4-0.1-4.9-0.5-7.3-0.4c-3.1,0.2-6.2,0.9-9.2,1.3
			c-4,0.4-7.4,2-9.6,5.3c-2.6,4.1-4.6,8.5-6.9,12.7c-0.3,0.6-0.8,1.1-1.2,1.6c-0.4-0.6-0.9-1.1-1.1-1.7c-0.8-2.7-1.5-5.6-2.4-8.3
			c-0.7-1.9-2-3.4-4.2-3.7c-5-0.8-9.8,0.3-14.3,2.4c-2,1-4.3,2.1-4.6,4.7c-0.5,4.7-1.2,9.5-0.8,14.1c0.4,5.2,1,5.2,6.2,6.4
			c0.8,0.2,1.6,1.4,1.9,2.3c0.5,1.8,0.8,3.6,0.8,5.5c0,0.8-0.5,1.9-1.2,2.4c-1.7,1.3-3.6,2.4-5.3,3.7c-0.6,0.5-0.9,1.4-1.3,1.9
			c2.1-1.4,4.1-3.1,6.4-4c2.2-0.8,2.5-2.1,2.3-4c-0.2-1.8-0.8-3.7-0.8-5.5c-0.1-2.6-1.2-3.6-3.8-3.5c-1.8,0-3.8-0.5-3.8-2.7
			c-0.2-5.2-0.2-10.4,0-15.6c0-1.1,1-2.4,1.9-3.1c3.3-2.8,7.4-4.1,11.5-4.1c6.7-0.1,7.8,0,9.3,6.3c0.6,2.5,1.6,4.9,2.3,7.4
			c0.2,0.6,0.1,1.5-0.1,2c-2.5,5.6-5.1,11.2-7.5,16.9c-1.1,2.5-1.9,5.1-2.8,7.7c1.4-1.7,2.5-3.5,3.3-5.4c1.6-3.7,3-7.5,4.6-11.2
			c1.2-2.8,2.5-5.5,3.9-8.2c1.9-3.7,3.9-7.4,5.8-11.1c0.1-0.1,0.1-0.2,0.1-0.3c1.3-4.6,4.6-7.5,8.9-8.9c2.8-0.9,5.8-1.4,8.8-1.5
			c5.4-0.2,10.7,0.1,16.1,0.1c1.9,0,4.1-0.1,5.7-1.1c1.6-0.9,3-2.5,2.7-5c-0.1-1,0.8-2.2,1.2-3.3c0.5-1.6,1.1-3.1,1.4-4.7
			c0.6-3,0.5-6.2,3.2-8.5c0.9-0.8,1.5-2.4,1.6-3.7c0.1-2.5-0.2-5-0.5-7.5c-0.3-2.6,0.2-4.2,2.8-4.9c6.1-1.7,12.1-3.6,18.3-4.4
			c5.3-0.7,11-0.8,14.9,4c1.6,2,3,4.3,3.7,6.7c0.6,2.4,0.7,5.2,0,7.5c-1,3.2-1.5,6.4-1.2,9.7c0.4,5.6,0.9,11.1,1.1,16.7
			c0.1,3.8-1.3,5.7-5,6.6C576.7,603.4,575.2,605.7,574,608.6c-1.9,4.3-1.5,8.4,0.3,12.5c0.1-0.7,0-1.4-0.1-2.1
			c-0.2-2.4-0.3-4.7-0.4-7.1C573.9,610.8,574,609.7,574,608.6z M209.3,446.9c-1.1,1-2.7,1.8-3.4,3c-2.9,5.9-5.5,11.8-8.1,17.8
			c-3.6,8.5-7.1,17-10.5,25.6c-1.8,4.6-3.2,9.3-4.8,13.9c-4.6,13.1-9.4,26.2-14,39.3c-1.3,3.6-2.3,7.3-3.4,11
			c-0.8,2.4-1.6,4.7-2.4,7.1c-1.4,4.3-2.5,8.7-4,13c-1.8,5.3-3.7,10.5-5.8,15.6c-3.1,7.7-4.4,16.1-8.8,23.4c-1.9,3.1-2.5,7-3.6,10.5
			c-0.8,2.8-2,3.9-4.8,4c-0.3,0-0.9-0.9-0.8-1.1c1.8-4.7,3.8-9.4,5.6-14.2c3.2-8.3,6.2-16.6,9.3-24.9c1.8-4.7,3.5-9.4,5.3-14.2
			c1.4-4,2.8-8.1,4.2-12.1c1-2.9,2.5-5.3,2.1-8.8c-0.3-2.8,1.7-5.8,2.7-8.7c0.2,0,0.3,0.1,0.5,0.1c0,0.5-0.1,1-0.1,1.6
			c0.8-2.1,1.2-4.2,1.8-6.2c3.1-9.3,6-18.7,9.4-27.9c3.4-9.5,7.2-18.9,11-28.3c1.7-4.4,3.7-8.7,5.5-13.2c2-5.1,3.7-10.3,5.6-15.4
			c4-10.7,8.1-21.3,12.1-32c0.2-0.6,0-1.5-0.1-2.3c-0.5,0.6-1.2,1.1-1.5,1.7c-0.8,2-0.7,4.5-3.2,5.5c-0.3,0.1-0.5,0.6-0.6,0.9
			c-1.6,4.4-3.3,8.7-4.9,13.1c-2.8,7.8-5.4,15.7-8.2,23.6c-0.1,0.4-0.5,0.7-1.3,1.7c-2.3-6.9-4.3-13.2-6.4-19.5
			c-2-6.2-3.9-12.5-6.1-18.6c-2.8-7.7-5.8-15.2-8.7-22.8c-1.2-3.1-1-6.5-3-9.4c-2.8-4-5.2-8.3-7.5-12.7c-2.1-4-3.6-8.2-5.6-12.3
			c-1.8-3.7-4-7.2-5.6-11c-2.8-7-5.3-14.2-7.9-21.3c-2.2-6.1-4.3-12.3-6.7-18.4c-2.9-7.4-6.2-14.7-9.2-22
			c-2.6-6.2-5.2-12.5-7.8-18.7c-2.5-5.9-5.2-11.9-7.8-17.8c-3.2-7.4-6.7-14.7-9.7-22.2c-2.3-5.8-4.1-11.7-5.9-17.7
			c-2.3-7.4-3.8-15-7.8-21.8c-1.5-2.6-2.3-5.7-3.8-8.4c-0.6-1.1-2.2-1.8-3.5-2.3c-0.4-0.2-1.7,0.7-1.9,1.3
			c-1.4,4.7-3.4,9.3-2.1,14.5c0.8,3.1,0.8,6.6,0.6,9.8c-0.4,7-1.3,13.9-1.9,20.9c-0.2,2.4-0.2,4.8-0.7,7.1
			c-1.3,6.6-2.9,13.2-4.2,19.8c-0.7,3.5-1.2,7-1.7,10.4c-0.6,3.8-1.3,7.5-1.8,11.3c-0.8,5.5-1.1,11-2.2,16.4
			c-1.6,7.9-3.7,15.7-5.5,23.6c-1.6,7.1-3.3,14.1-4.6,21.3c-0.9,4.8-1.1,9.6-1.8,14.4c-1.1,7.2-2.2,14.4-3.6,21.6
			c-1,5.1-2.4,10.1-3.7,15.2c-1.3,5.3-2.8,10.5-4.2,15.8c-0.9,3.5-1.5,7-2.5,10.5c-1,3.7-2.5,7.3-3.4,11c-2.5,10.3-4.8,20.7-7.1,31
			c-1.9,8.7-3.7,17.5-5.4,26.3c-1.4,6.9-2.8,13.8-3.9,20.7c-1.3,8.8-2.2,17.6-3.5,26.4c-0.9,5.6-2.3,11.2-3.3,16.7
			c-0.9,4.8,2.4,10,7.1,11.1c8.5,1.9,16.7,4.7,24.6,8.3c3.7,1.7,8,3,9,8c0.1,0.3,1,0.7,1.3,0.6c0.4-0.1,0.8-0.8,0.9-1.2
			c0.1-2.6,0-5.2,0.2-7.9c0.3-5.6,0.7-11.1,1.2-16.7c0.5-4.8,1.2-9.6,1.7-14.4c0.3-3,0.3-6.1,0.3-9.2c0-1.5,0.6-2.6,2-3.3
			c4.5-2.3,9-4.7,13.4-7.2c4.3-2.4,8.5-4.8,12.6-7.4c6.2-3.9,12.4-7.9,18.5-12c5.4-3.5,10.7-7.1,16-10.7c0.5-0.3,1-0.9,1.2-1.4
			c0.6-1.7,1.1-3.4,1.4-5.2c0.3-1.7,1-3.7,0.4-5.1c-2.9-6.6-1.7-13.7-3.1-20.5c-1.2-6-1.1-12.3-2-18.4c-1.2-7.9-3.4-15.7-3.5-23.8
			c0-1.6,0.5-2.4,2-2.9c1.7-0.5,3.3-1.3,5-2.1c11.1-5.3,22.5-10.1,34.4-13.6c0.7-0.2,2.1,0.1,2.4,0.6c1.9,2.7,3.8,5.4,5.2,8.3
			c2.3,4.9,4,10,6.4,14.9c4.8,9.7,8.5,19.8,11.6,30.1c0.2,0.8,1.2,1.3,1.5,2.1c1.4,3.4,3,6.8,4.1,10.3c1.4,4.4,2.6,8.6,0.5,13.5
			c-5.1,11.7-9.5,23.7-14.2,35.6c-2.7,6.9-5.7,13.6-8.2,20.5c-3.7,10-7.1,20.1-10.6,30.2c-0.1,0.4,0.1,1,0.2,1.5
			c0.2,0.8,0.8,1.6,0.6,2.3c-0.6,1.9-1.6,3.8-2.3,5.7c-3.6,9.9-7.1,19.9-10.8,29.8c-2.5,6.9-5.3,13.6-7.8,20.5
			c-0.7,1.9-1.9,2.9-3.8,3.4c-3.2,0.9-6.3,1.9-9.4,3c-2.3,0.8-3.6,0-4.2-2.4c-0.7-2.6,0.2-4.9,1.2-7.3c2.1-4.9,3.7-9.9,2.1-15.3
			c-1.1-3.8-2.4-7.5-1.7-11.6c0.2-1.6-0.4-3.4-0.9-5.1c-0.4-1.6-1.5-3.2-1.5-4.8c0.2-4.8-1.6-8.2-5.7-10.5c-0.5-0.3-0.9-0.6-1.3-1
			c-2.1-1.7-4.4-2.8-7.2-2.6c-3.2,0.2-6.3,0.3-9.5,0.5c-0.6,0-1.2,0.2-1.8,0.4c-7.4,2.5-14.7,5-22.1,7.6c-3,1-6,2.5-7.3,5.4
			c-1.7,3.8-2.2,8.1-1.4,12.3c0.1,0.8-0.4,2-1,2.7c-1.9,1.8-4,3.5-5.9,5.2c-1.3,1.1-1.3,2.4,0.1,3.5c1.2,1,2.4,2.2,3.8,3
			c4.8,2.8,8,6.6,8.9,12.1c0.4,2.4,1,4.8,1.8,7.2c0.4,1.1,1,2.5,2,3c3.7,2.1,4.8,5.5,5.6,9.2c0.4,2-1.2,5.1-2.9,5.8
			c-2.8,1.1-5.6,2.1-8.3,3.3c-1.8,0.8-3.5,1.9-5.3,2.9c4.1-1.4,8-3.1,11.9-4.8c3.5-1.5,6.3-5.1,5.5-7.6c-1.2-3.7-2.2-7.6-5.9-10
			c-0.8-0.5-1.5-1.7-1.8-2.7c-0.9-2.9-1.4-5.9-2.4-8.9c-1.1-3.4-2.4-6.7-5.8-8.8c-2.2-1.3-4.1-2.9-6.1-4.5c-0.5-0.4-0.8-1.9-0.6-2.1
			c1.9-1.7,3.8-3.7,6-4.7c2-0.9,2-1.9,1.7-3.7c-1.3-9.5-0.2-12.2,6.9-15.9c5.7-2.9,12.1-4.6,18.3-6.4c4.3-1.2,8.8-1.6,13.2-2.3
			c6.1-1,10.2,2.5,14,6.5c0.8,0.8,0.8,2.3,1.1,3.5c0.5,2.1,1,4.3,1.4,6.4c0.4,2.1,0.9,4.3,1.2,6.5c0.4,2.9,0.1,6.1,1,8.8
			c2,5.8,1,11.2-1.2,16.5c-1.2,2.7-2.2,5.5-1.3,8.5c1,3.3,2.6,4.9,6.2,3.4c2.3-1,4.9-1.5,7-2.6c2.3-1.2,5.1-0.1,7.1-2.2
			c0.6-0.6,1.8-0.9,2.8-1c1.7-0.3,3.6,0.2,5.1-0.5c3.5-1.6,6.2,0.4,9.2,1.4c0.5,0.2,1.2,0.2,1.7,0.3c-0.3-0.6-0.5-1.7-1-1.9
			c-2.4-0.8-4.9-1.3-7.4-1.9c-0.4-0.1-0.7-0.4-1-0.6c0.9-1.1,1.7-2.4,2.9-3.3c0.6-0.5,1.7-0.3,2.6-0.5c2.8-0.8,3.8-0.4,5,2.2
			c1,2.2,1.7,4.4-0.1,6.6c7.8,5.3,6.2,14,8.1,21.5c0-1.7-0.2-3.4-0.3-5c-0.2-2.1-0.4-4.3-0.3-6.4c0-0.7,0.7-1.6,1.3-1.9
			c1.2-0.6,5,2.1,5.3,3.4c0.5,2.2,1.1,4.4,1.7,6.6c0.2,0,0.4,0,0.7,0c0.1-0.6,0.2-1.3,0.2-1.9c-0.2-1.7-1.2-4.1-0.5-5
			c2-2.3-0.4-4.3,0.4-6.3c-0.4,0.2-0.7,0.5-0.8,0.8c-0.7,1.8-2,2.4-3.7,1.9c-1.9-0.6-1.5-2.1-1.2-3.6c0.4-2.3,0.8-4.6,0.9-6.9
			c0.2-4.3-0.1-8.6,0.3-12.9c0.4-4.8,2.3-6.9,6-7.4c4.3-0.6,8.6-1.1,13-1.6c2.4-0.3,4.9-0.4,7.3-0.8c4.3-0.8,7.9,1.7,8.8,6.1
			c0.5,2.2,1.1,4.2,3.2,5.6c1.9,1.3,3.6,2.9,5.5,4.4c-0.3,0.2-0.6,0.5-0.9,0.6c-2.7,1.4-5.4,2.8-8,4.3c-0.5,0.3-0.8,0.9-1,1.5
			c-0.1,0.2,0.4,0.9,0.7,1c2.2,0.4,2.2,1.9,1.9,3.6c-0.2,1.4-0.5,2.8-0.8,4.2c-0.8,3-0.4,5.8,0.7,8.6c1.3,3.1,0.6,4.7-2.5,5.9
			c-0.7,0.3-1.4,0.7-2.2,1c5.3-0.5,6.9-2.9,5.5-7.7c-1.1-3.6-1.6-7.1-0.3-10.8c0.6-1.6,0.9-3.8,0.3-5.3c-0.9-2.3,0.4-3.1,1.8-3.7
			c1.3-0.6,2.7-0.9,4.2-1c1.2-0.1,2-0.3,2.2-1.7c0.3-1.4-0.7-1.6-1.6-2.2c-3.5-2.5-7.6-4.5-7.8-9.7c-0.2-3.4-2.4-5.4-5.6-5.8
			c-2.6-0.3-5.2-0.1-7.8,0.2c-5.3,0.6-10.7,1.3-16,2.3c-4.6,0.9-6.9,2.6-7.2,7.3c0,0.7-0.2,1.3-0.2,2c-0.3,4.3-0.4,8.6-0.9,12.9
			c-0.3,2.8-0.9,5.5-1.5,8.3c-0.1,0.6-1,0.9-1.5,1.4c-0.4-0.5-0.8-0.9-1.1-1.4c-0.3-0.4-0.4-1-0.7-1.5c-1.8-3-3.5-6-3.9-9.7
			c-0.4-4.6-3.7-6.5-8-5.3c-1.6,0.5-2,0-1.6-1.5c0.2-0.6,0.4-1.2,0.6-1.9c1.3-3.7,2.8-7.4,4-11.1c1.1-3.4,2-6.9,3.2-10.3
			c3.4-9.7,7-19.2,10.4-28.9c2.6-7.5,4.8-15,7.5-22.5c3.5-9.6,7.3-19.2,11-28.7c1.1-3,2.2-5.9,3.3-8.9c1.2-3.4,2.5-6.7,3.6-10.1
			c1-3.3,1.8-6.7,2.6-10.1c0.3,0,0.6,0,0.9,0c1.7,4.6,3.4,9.1,5,13.7c1.4,4,2.3,8.2,4.1,12c1.8,3.8,4.5,7.1,6.8,10.6
			c0.8,1.2,1.5,2.4,2.1,3.6c1.2,2.5,2.2,5.1,3.5,7.6c1.1,2.1,2.9,4,3.7,6.2c4.2,11.3,8.3,22.6,12.3,33.9c0.2,0.5,0.1,1.1,0.1,1.7
			c-0.2,0-0.4,0-0.6,0.1c-2.3-5.8-4.6-11.6-6.9-17.5c-0.3,0.4-0.4,0.8-0.3,1.1c1.3,3.8,2.6,7.6,4.1,11.3c2,5.1,4,10.1,6,15.1
			c0.4,1.1,0.9,2.1,1.2,3.2c1.1,3.9,2.1,7.8,3.2,11.7c0.9,3.2,2.1,6.4,2.9,9.6c0.6,2.5-0.9,3.9-3.3,2.7c-2.1-1.1-3.5,0-5.2,0.8
			c-1.1,0.5-2.1,1.1-3.2,1.5c-3.2,1.2-4.7,3.1-4.6,6.5c0.1,4.4,0.4,8.7,0.9,13.1c0.6,5,1.4,9.8,5.1,13.7c1.6,1.7,0.7,4.8-1.4,5.9
			c-0.8,0.4-1.8,0.7-2.6,1.1c-1.4,0.7-2.8,1.3-4.2,2c0.1,0.3,0.2,0.5,0.4,0.8c2.1-0.8,4.3-1.6,6.4-2.4c0.6-0.3,1.4-0.7,1.6-1.2
			c1.3-2.6,1.8-5.5-0.6-8.2c-1.2-1.4-2.4-3.2-2.7-5c-1-6.2-1.6-12.4-2.3-18.6c-0.2-2,0.6-3.6,2.3-4.6c3.7-2.3,7.3-4.9,12.1-4.2
			c1.5,0.2,2.6,0.6,3.2,2.1c1.7,4,3.7,7.8,5.2,11.9c2,5.4,3.5,11,5.5,16.3c2.8,7.6,5.9,15,8.9,22.5c0.6,1.4,1.2,2.8,1.8,4.2
			c-0.3-2-0.9-3.9-1.5-5.7c-3.3-9-6.5-18.1-9.9-27.1c-2.7-7.3-5.6-14.5-8.2-21.8c-0.7-2-1-4.2-1.3-6.4c-0.1-0.3,0.5-0.8,0.8-1.2
			c0.3,0.3,0.8,0.6,0.9,0.9c0.5,1.1,0.8,2.2,1.2,3.4c0.5,1.7,0.9,3.4,1.4,5.2c0.5-0.5,0.7-1,0.6-1.4c-0.7-3.1-1.4-6.1-2.3-9.2
			c-0.6-2.1-2-4.3-1.7-6.2c0.4-3.1-1.8-4.7-2.8-7c-1.2-2.7-1.5-5.8-3.6-8.1c-0.2-0.3-0.1-0.8-0.2-1.2c-0.6-1.5-0.9-3.5-2-4.4
			c-1.1-0.8-1.3-1.4-1.5-2.5c-0.2-1.2-0.3-2.4-0.7-3.5c-1.5-4.6-3-9.2-4.7-13.8c-2.1-5.9-4.2-11.8-6.7-17.6
			c-2.4-5.5-5.2-10.8-7.8-16.2c-0.2-0.4-0.4-0.9-0.7-1c-2.6-0.5-2.5-3-3.5-4.6c-0.8-1.3-1.3-2.8-2-4.2c-1.5-3.1-3.3-6.1-4.6-9.2
			c-1-2.3-1.4-4.9-2.1-7.4c0.2-0.1,0.4-0.1,0.6-0.2c0.7,1.3,1.3,2.6,2,3.9c0.2-0.1,0.4-0.2,0.7-0.3c-1.2-3.1-2.4-6.2-3.5-9.2
			c-2.1-5.5-5-10.8-4-17c0.3-2,0.9-4,1.7-5.9c1.3-3.5,2.9-6.9,4.3-10.4c1.3-3.3,2.3-6.6,3.6-9.9
			C206.9,452.6,208.1,449.8,209.3,446.9c0.1-0.4,0.2-0.9,0.4-1.3c1.1-2.3,2.5-4.5,3.4-6.9c1.8-4.5,3.3-9.1,5-13.7
			c2-5.6,4-11.1,6.1-16.7c1.9-5,3.9-10,5.8-15.1c2.3-6,6.3-11.4,6.1-18.6c3.6,2.9,7.1,5.5,10.5,8.2c0.2,0.2,0.4,0.7,0.3,1
			c-0.2,1.2-0.4,2.3-0.6,3.8c-1.1-0.5-2.1-1-3.1-1.5c0.3,0.8,0.9,1.3,1.5,1.7c0.9,0.5,2.1,0.6,2.9,1.2c2,1.4,3.7,3.3,5.9,4.3
			c3.3,1.6,7,2.3,10.2,3.9c9,4.6,18.2,9,26.8,14.3c11.1,6.8,21.5,14.6,30.1,24.5c3.4,4,7.1,7.8,10.5,11.8c0.6,0.7,1.1,1.8,1.1,2.7
			c0.5,5.8,0.8,11.6,1.3,17.4c0.8,8.8,1.5,17.7,2.6,26.5c1.5,11.8,3.3,23.5,5,35.2c0.3,2,1,3.6,2.9,4.4c5.6,2.3,8.6,7.3,12.3,11.5
			c2.5,2.8,4.9,5.8,7.1,8.9c3.6,5.1,7,10.4,10.6,15.6c0.3,0.4,0.9,0.5,1.4,0.8c0.1-0.6,0.4-1.1,0.3-1.7c-0.2-1.1-0.8-2.2-0.7-3.3
			c0.5-7.6,1.4-15.1,3.4-22.4c0.7-2.5,1.4-5.1,2-7.6c0.9-3.5,1.6-7.1,2.6-10.6c1.1-3.9,2.4-7.8,3.8-11.6c1.5-4.2,2.7-8.6,4.7-12.6
			c1.3-2.6,3.9-4.6,5.9-6.9c0.4-0.4,0.6-1.2,0.5-1.7c-0.1-0.7-0.6-1.3-1-1.9c-0.2,0.2-0.3,0.3-0.5,0.5c-0.5-0.4-1.1-0.8-1.3-1.3
			c-1-2.9-2.2-5.9-2.9-8.9c-2.3-9.8-4.4-19.6-6.5-29.5c-1.6-8-2.8-16-4.6-23.9c-1.9-8.5-4.4-16.8-6.6-25.2
			c-2.4-9.5-4.9-18.9-7.2-28.4c-1.3-5.3-2.1-10.8-3.2-16.2c-1.6-8.2-3.6-16.4-4.9-24.7c-2.1-13.4-6.5-26.3-9.8-39.4
			c-0.8-3.2-1.9-6.4-2.7-9.7c-1.2-4.8-1.7-9.9-3.5-14.5c-1.4-3.7-2.3-7.4-2.6-11.2c-0.3-2.9-0.2-5.9-2.4-8.2c-0.2-0.2-0.1-0.7-0.2-1
			c-0.1-1.4,0-2.8-0.4-4.1c-1.8-7.1-3.7-14.2-5.4-21.4c-1.4-6.1-2.6-12.3-3.8-18.5c-1-5.1-2-10.1-2.7-15.2
			c-0.6-4.3-0.8-8.6-1.1-12.9c-0.5-5.9-2.8-11-7.2-14.8c-1.6-1.4-4.2-1.6-6.4-2.2c-0.3-0.1-1,0.6-1.2,1c-1.3,3.1-2.6,6.1-3.8,9.3
			c-1.2,3.1-2.1,6.2-3.4,9.2c-1.8,4.2-3.8,8.2-5.7,12.4c-0.1,0.1,0,0.3,0.1,0.6c0.4-0.4,0.8-0.7,1.5-1.2c-0.2,0.7-0.2,1-0.4,1.2
			c-1.2,1.7-2.8,3.2-3.6,5c-2.3,5.5-4.4,11.1-6.5,16.6c-1.1,2.9-2,5.9-3.4,8.7c-1.3,2.6-1.6,5.6-3.8,7.8c-0.1,0.1-0.1,0.3-0.1,0.5
			c-1.4,4.3-2.6,8.7-4.1,12.9c-1.8,4.9-4,9.8-6,14.6c-2.7,6.5-5.4,13.1-8.1,19.6c-1.5,3.8-2.9,7.6-4.5,11.3
			c-2.4,5.9-5.1,11.8-7.3,17.8c-2.6,7-4.8,14.1-7.2,21.1c-1.6,4.5-3.2,8.9-4.9,13.3c-1.4,3.7-2.6,7.5-4.4,11
			c-2.7,5.3-4.9,10.7-5.9,16.6c-0.2,1-0.6,2-0.9,3.2c1.9-0.3,3.4-1.2,4.5,0.7c0.2,0.4,0.8,0.6,1.2,0.8c1.5,0.7,1.3,1.7,0.8,3
			c-0.2,0.6-0.2,1.3-0.3,2c-0.1,0.8,0.1,1.7-0.2,2.4c-0.3,0.7-1.1,1.2-1.4,1.9c-1.7,3.7-3.4,7.4-4.9,11.2c-2,5-3.7,10.2-5.6,15.3
			c-1.9,5-3.9,9.9-5.7,14.8c-2.5,6.5-4.8,13.1-7.4,19.6C208.1,445.3,208.1,446.1,209.3,446.9z M421.2,584.9
			c-0.3-0.1-0.5-0.2-0.8-0.3c-1.7,1.9-3.5,3.9-5.2,5.8c-1.3,1.5-1.9,1.3-2.8-0.4c-0.4-0.7-1.1-1.3-1.8-1.9c-0.6-0.5-1.4-0.8-1.8-1.4
			c-3-3.5-6.6-5.9-10.9-7.4c-0.9-0.3-2.1-0.6-3-0.3c-4.8,1.5-9.6,3.2-14.4,4.7c-3.9,1.2-7.8,2.4-11.7,3.4c-4.6,1.2-9.1,2.9-13.8,3.2
			c-4.4,0.3-8.2,1.7-12.1,3.5c-0.4,0.2-0.6,0.7-0.9,1c2.6-0.6,4.9-1.7,7.2-2.3c2.3-0.6,4.8-0.8,7.2-1.3c4.2-0.9,8.5-1.8,12.7-2.8
			c3.5-0.8,7-1.6,10.4-2.7c4.1-1.3,8-3.1,12.1-4.4c1.9-0.6,4.2-1.2,6.1-0.7c2.4,0.6,4.8,2,6.7,3.7c3.8,3.4,7.3,7.1,10.8,10.8
			c2.9,3.2,6.6,5.8,8.1,10.1c0.1,0.2,0.5,0.5,0.8,0.5c2.2-0.1,6.2,3.3,6.7,5.4c0.2,1,0.7,2,1.2,2.9c0.9,1.4,0.6,6-0.9,6.6
			c-1.9,0.8-1.7,2.5-1.2,3.4c2.2,4.3,1.6,8.8,1.2,13.1c-0.8,7.6,1.1,14.8,2.7,22.1c0.2-1.7,0-3.4-0.2-5c-0.5-4.8-1.5-9.5-1.4-14.3
			c0.1-3.7,0.3-7.3-0.4-11c-0.3-1.6-0.3-3.5,0.1-5.1c0.7-2.8,2-5.4,2.6-8.2c0.3-1.2-0.3-2.7-0.8-3.9c-0.5-1.6-1.7-3-1.9-4.6
			c-0.7-5.9-1.3-11.7-1.7-17.6c-0.2-3.4,0.8-4,4.1-3.1c0.5,0.1,1.1,0.3,1.5,0.5c2.2,1.3,4.6,1.8,7.1,1.2c0.5-0.1,1-0.4,1.4-0.6
			c-0.5-0.3-1-0.9-1.4-0.8c-4.5,0.9-7.7-2.5-11.7-3.3c-0.3-0.1-0.8-0.7-0.8-1.1c-0.2-1.2-0.4-2.4-0.3-3.6c0.2-4.2,0.5-8.4,0.8-12.5
			c0.2-2.3,0.3-4.6,0.6-6.9c0.2-1.4,1-2.8,1.1-4.2c0.2-2.1,0-4.3-0.1-6.5c-0.2-8.2-0.4-16.4-0.7-24.6c-0.1-3.7-0.4-7.4-0.3-11.1
			c0.2-7.6,0.7-15.3,0.8-22.9c0.1-4.4-0.5-8.7-0.4-13.1c0.1-12.2,0.3-24.4,0.6-36.7c0.1-4.5,0.3-9,0.5-13.6
			c0.2-3.8,0.4-7.6,0.6-11.5c0.2-3.8,0.4-7.6,0.7-11.5c0.9,0.3,1.4,0.5,2,0.7c3.4,1.4,6.8,3,10.3,4.2c4.4,1.6,8.8,3.2,12.3,6.5
			c1.8,1.7,3.8,3.2,5.7,4.8c0.2-0.1,0.3-0.2,0.5-0.3c-0.4-0.8-0.6-1.7-1.2-2.2c-2.5-2.1-4.9-4.6-7.8-6c-6.3-3-12.9-5.6-19.4-8.2
			c-1.7-0.7-2.6-1.4-2.3-3.4c0.3-1.6,0.3-3.2,0.3-4.8c0.1-4.3,0-8.6,0.2-12.9c0.3-5.7,0.8-11.5,1.1-17.2c0.2-6.3,0.3-12.6,0.2-18.8
			c-0.1-2.6,1.1-3.8,3.2-4.7c0.5-0.2,1.2-1.1,1.1-1.7c-0.2-3.5-0.6-7-0.9-10.6c-0.2-2.3-0.6-4.6-0.7-7c-0.2-8.1-0.2-16.1-0.3-24.2
			c-0.1-7.6-0.3-15.2-0.6-22.8c-0.3-10.2-1.1-20.3-1-30.5c0.1-9-0.1-18.1-0.8-27.1c-0.1-1.5-0.4-2.9-0.6-4.4
			c-0.5,5.9-0.5,11.7-0.5,17.5c0,1.7,0.5,3.3,0.5,5c0,9.1-0.1,18.2,0,27.3c0.1,6.6,0.6,13.3,0.9,19.9c0.3,7.5,0.8,15.1,0.9,22.6
			c0.1,6.3-0.4,12.7-0.2,19c0.1,4.7,0.8,9.4,1.4,14.1c0.3,2-0.5,1.7-1.8,1.4c-1-0.3-2.7-1.8-2.8,1c0,0.2-0.5,0.4-0.8,0.5
			c-0.7,0.4-1.4,0.6-2,1.1c-6.8,5.3-13.6,10.6-20.3,16c-3.1,2.5-6.2,5.1-9.2,7.8c-4.2,3.8-8.4,7.6-12.6,11.4
			c-0.4,0.4-1.2,0.4-1.7,0.6c-0.1-0.5-0.4-1-0.3-1.5c0.5-3.4,1-6.7,1.5-10.1c0.9-6.3,1.9-12.6,2.8-18.9c0.8-5.2,1.4-10.4,2.3-15.6
			c1.1-6.7,2.5-13.3,3.7-19.9c0.7-3.8,1.1-7.7,2-11.5c1.4-5.8,3.2-11.4,4.7-17.1c1.9-7.4,3.7-14.9,5.5-22.3
			c1.8-7.4,3.7-14.8,5.4-22.2c1-4.5,1.7-9,2.7-13.5c1.7-7.7,3.5-15.4,5.3-23.1c1-4.4,2.3-8.7,3.2-13.1c1.2-6.3,2.2-12.7,3.2-19.1
			c0.6-3.6,1.2-7.1,1.7-10.7c0.2-1.4,3.3-3.9,5.1-2.6c1.8,1.2,3.6,2.4,5.2,3.7c0.7,0.5,1.3,1.4,1.5,2.3c1.4,6,2.6,12.1,3.8,18.2
			c1.6,7.9,3.3,15.8,4.8,23.7c2,10.8,3.8,21.6,5.9,32.4c0.8,4.2,2.2,8.3,3.5,12.4c1.7,5,3.8,9.9,5.3,14.9c0.8,2.7,1,5.6,1.4,8.5
			c-0.2,0-0.3,0.1-0.5,0.1c-0.9-4-1.9-8.1-2.8-12.1c-0.4,0.9-0.2,1.6-0.1,2.4c1.3,5.5,2.7,11,4,16.6c2,8.9,3.7,17.9,5.7,26.8
			c1.5,7,3.1,14,4.8,21c1,4.3,2.1,8.6,3.2,12.9c1.7,7,3.6,13.9,5.3,20.9c1.1,4.5,2.2,9.1,3,13.6c1,5.3,1.6,10.6,2.6,15.9
			c0.7,4,1.5,8,2.6,11.9c2.6,9.5,5.6,19,8.1,28.5c2,7.4,3.2,14.9,5.3,22.2c2.8,9.8,6.1,19.4,9.4,29.1c0.9,2.7,2.9,5,3.7,7.7
			c1.1,3.5,1.6,7.1,2.2,10.7c0.4,2.7,0.6,5.4,0.8,8c0,0.3-0.9,1.1-1.1,1c-2-0.7-3.8-1.6-5.8-2.4c-2.5-1-5-2-7.5-3
			c-0.5-0.2-1.4-0.2-1.5,0c-0.9,1.6-2.1,0.6-3.1,0.4c-2.1-0.4-4.2-0.9-6.3-1.3c-5.4-1-11.1-1.1-16-4.2c-1.9-1.2-3.4-2.3-3.6-4.7
			c-0.4-4.6-0.9-9.2-1.5-13.8c-0.8-6.6-1.8-13.2-2.7-19.8c-0.7-5-1.5-10.1-2.4-15.1c-1.4-8.1-3.1-16.1-4.4-24.2
			c-1.2-6.8-2-13.7-3.2-20.5c-0.9-5.1-2.2-10.2-3-15.3c-0.9-5.8-1.2-11.7-1.9-17.5c-0.6-4.9-1.4-9.7-2-14.5
			c-0.8-6.3-1.7-12.5-2.5-18.8c-0.5-4.5-0.8-9-1.3-13.6c-0.5-5.5-1.2-10.9-1.7-16.4c-0.2-1.7-0.2-3.5-0.4-5.2
			c-0.6-5.5-1.2-11-1.7-16.6c-0.6-6.6-1-13.2-1.7-19.8c-0.7-6.1-1.8-12.2-2.8-18.2c-0.5-2.9-1.1-5.8-1.6-8.8
			c-0.5,0.9-0.7,1.7-0.6,2.6c0.1,2.7,0.2,5.5,0.6,8.2c0.5,3.5,1.2,6.9,1.8,10.4c0.6,3.4,1.5,6.9,1.8,10.3c0.6,5.6,0.7,11.2,1.1,16.8
			c0.5,6.1,1,12.2,1.5,18.3c0.2,2.1,0.1,4.1,0.3,6.2c0.7,6.4,1.6,12.8,2.3,19.2c0.7,6.1,1.3,12.3,2.1,18.4
			c0.6,5.2,1.5,10.4,2.1,15.7c0.5,4.8,0.5,9.7,1.3,14.5c1.4,8.3,3.2,16.6,4.8,24.9c1,5.4,2,10.8,2.8,16.3c0.8,5.3,1.1,10.6,2,15.9
			c0.8,4.4,2.3,8.7,3.1,13.1c1,5.8,1.7,11.6,2.5,17.4c1.6,11.8,3.2,23.6,4.8,35.4c0.2,1.4,1,2.1,2.2,2c0.7,0,1.4-0.9,2.3-1.5
			c1.8,0.7,4.1,1.5,6.4,2.4c0.3,0.1,0.7,0.7,0.7,1.1c0.1,1.1,0.2,2.3,0.2,3.4c0.1,3.8-0.2,7.7,0.3,11.5c1.2,8.1,2.8,16.2,4.3,24.3
			c0.1,0.7,0.7,1.3,1.1,1.9c0.2-0.9-0.2-1.5-0.3-2.1c-0.4-3.9-0.4-7.8-1.1-11.6c-0.5-2.6-1.4-5-0.8-7.7c0.2-0.9-0.8-1.9-1.2-2.9
			c-0.7-1.9-0.2-3.8-0.1-5.8c0.3-3.8-0.7-7.7-1.1-11.6c0.2-0.1,0.3-0.2,0.4-0.2c7.8,0.8,15.4,2.1,22.6,5.4c1.5,0.7,3.1,1.4,4.7,1.8
			c3.3,0.8,6.2,4.7,3.2,8.3c-2.3,2.8-4.9,5.3-7.3,8c-5.5,6-11,12-16.4,18c-2.6,2.9-1.9,7.8,1.5,9.7c3.1,1.8,6.4,3.3,9.5,5.1
			c4.5,2.5,8.9,5.1,13.4,7.6c1,0.6,2.6,0.4,3.4,1.1c2.1,2,3.9,4.4,5.8,6.6c0.3,0.4,0.7,0.6,1.1,0.9c0.1-0.4,0.5-0.9,0.4-1.3
			c-0.8-1.9-1.7-3.8-2.6-5.6c-1.8-3.6-4-7-5.4-10.7c-1.6-4.1-2.6-8.4-3.8-12.7c-1.5-5.8-3-11.6-4.4-17.4c-0.1-0.6,0.1-1.4,0.4-1.8
			c1.6-2.3,3.3-4.5,5.1-6.7c3-3.8,4.6-8.3,4-13.1c-0.6-5-2-10-3.1-14.9c-0.4-1.6-0.9-3.1-1.5-4.6c-1.4-3.1-3.3-6.1-4.5-9.3
			c-2.9-8.1-5.8-16.1-8.2-24.4c-2.2-7.9-3.6-16-5.6-24c-1.6-6.5-3.7-12.9-5.4-19.4c-1.5-5.8-2.9-11.6-4.2-17.5
			c-1.3-5.7-2.5-11.4-3.6-17.1c-0.7-3.6-0.7-7.4-1.5-11c-1.2-5.3-3-10.5-4.4-15.7c-1.3-4.9-2.3-9.9-3.5-14.9
			c-1.2-5.2-2.5-10.5-3.6-15.7c-0.9-4-1.6-8.1-2.5-12.1c-1.7-7.4-3.9-14.7-5.4-22.2c-1.3-7-1.9-14.2-2.9-21.3c-0.3-2-0.8-4-1.5-5.9
			c-1.7-4.4-4-8.5-5.2-13c-2.2-9-3.8-18.2-5.6-27.4c-1.5-7.6-2.8-15.3-4.4-22.9c-1-4.9-2.3-9.7-3.4-14.5c-1.4-6-2.6-12.1-3.9-18.1
			c-0.8-3.4-3.2-5.4-6.2-6.7c-0.7-0.3-1.6-0.2-2.4,0.1c-1.9,0.6-3.7,1.5-5.5,2.2c0,0.1,0.2,0.6,0.1,1.1c-0.3,2.2-0.5,4.4-0.9,6.5
			c-0.7,4.2-1.6,8.5-2.4,12.7c-1.4,7.3-2.8,14.7-4.3,22c-1.8,8.4-3.8,16.7-5.7,25c-0.6,2.7-1,5.4-1.6,8.1c-1.5,6.4-3,12.8-4.5,19.2
			c-1.5,6.4-2.9,12.9-4.5,19.3c-2.4,9.5-5.4,18.8-7.5,28.3c-2.4,10.5-4.3,21-6.1,31.6c-2.7,16.1-5.2,32.3-7.7,48.5
			c-0.2,1.1,0.5,2.9,1.4,3.6c3.4,2.4,7.1,4.4,10.6,6.5c0.1,0.1,0.3,0.1,0.7,0.1c-0.3-0.5-0.6-0.7-1-1.3c1.1,0.3,2,0.4,2.8,0.7
			c7.4,2.4,14.2,6,20.9,9.9c5,2.9,6,5.3,5.1,11c-0.4,2.8-0.6,5.8-0.6,8.6c0.1,5.7,0.7,11.5,0.5,17.2c-0.3,7.9-1.2,15.8-1.7,23.6
			c-0.3,4.6-0.1,9.2-0.2,13.9c-0.1,6.7-0.5,13.4-0.5,20.1c0,4.4,0.6,8.7,0.6,13.1c0.1,10.8,0.1,21.7,0.1,32.5c0,1.4,0.1,2.9-0.2,4.3
			c-1.2,5.8-2,11.5-0.8,17.5c1.2,6.3,1,12.7,0.6,19.2c-0.3,6.6,0,13.2,0,19.7c0,0.4-0.2,0.8-0.4,1.5c-1.9-2.2-3.6-4.1-5.4-6
			c-1.3-1.3-1.5-2.8-0.6-4.2c1.1-1.7,2.5-3.2,3.7-4.8C420.9,586.2,421,585.5,421.2,584.9z M274.1,633.9c0,0.1,0.1,0.1,0.1,0.2
			c2.2,1.1,4.5,2.1,6.7,3.2c0.5,0.3,1.1,0.6,1.6,0.9c0.3-0.6,0.8-1.1,0.9-1.8c0.7-4.1,1.1-8.3,2.1-12.4c0.4-1.7,1.9-3.3,3.3-4.4
			c4.1-3.4,9.4-3.2,14.2-3.3c6.1-0.2,12.3,0.2,18.4,0.5c5.3,0.2,10.1,2,14.7,4.6c4.1,2.4,8.2,4.9,12.2,7.5c0.9,0.6,1.9,1.5,2.2,2.4
			c2,7.4,3.7,14.9,2.9,22.7c-0.1,0.9,0.4,1.8,0.6,2.7c0.3-2.4,0.3-4.7,0.3-7c0-2.1,0.3-4.2,0-6.3c-0.3-2.7-1.2-5.4-1.5-8.1
			c-0.5-4.1-2.5-6.9-6.4-8.5c-2.2-0.9-4.2-2.3-6.2-3.6c-0.5-0.3-0.9-1.1-0.8-1.6c0.4-2.7,1.4-5.4,1.5-8.2c0.2-4.1,0-8.2-0.1-12.3
			c0-1.8,0-3.5,0-5.3c-0.3,0-0.6,0-0.8-0.1c-0.2,1.1-0.4,2.1-0.4,3.2c-0.2,6.9,0.8,13.9-1.5,20.7c-0.3,1-0.5,1.7-1.7,1
			c-5.2-3.1-10.8-4.9-16.8-5c-2.4,0-4.8,0-7.2-0.1c-6.8-0.3-13.5-0.4-20.2,1.1c-4.5,1-7.3,3.6-8.3,8.1c-0.9,3.8-1.8,7.6-2.6,11.2
			C279,635.2,276.6,634.5,274.1,633.9z M456.2,649.5c-1.3-2.1-2.8-4.2-4.1-6.5c-1.1-2.1-1.9-4.3-0.8-6.7c0.8-1.8,1.5-3.6,2.2-5.4
			c1.3-3.1,2.1-6.4,0.2-9.5c-1.7-2.7-2.3-5.5-2.1-8.5c0.1-1.8,0.6-3.5,1-5.2c1.1-5.5,0.1-10.9-1.2-16.3c-0.5-2.1-3.6-4.3-5.9-4.2
			c0.6,0.5,1.2,0.7,1.5,1.2c1.3,1.5,2.7,3,3.6,4.7c0.7,1.4,0.8,3.2,1.1,4.9c0.7,3.6,0.7,7.2-0.5,10.7c-1.4,4-1.2,8.2,0.7,11.6
			c2.3,4,2.4,7.5,0.3,11.3c-2.9,5.5-2.8,10.8,1.2,15.8c0.5,0.6,0.8,1.5,0.8,2.3c0.1,1.6,0,3.2-0.2,4.7c-0.2,1.8-0.7,3.6-1,5.4
			c-0.2,1.8-0.3,3.6-0.4,5.4c0.2,0,0.5,0,0.7,0c0.2-1.6,0.4-3.1,0.6-4.7c0.3-2.5,0.7-4.9,1.1-7.4
			C455.4,651.7,455.9,650.5,456.2,649.5z M255,633.9c0.3-0.1,0.6-0.2,0.8-0.3c-0.4-0.9-0.9-1.7-1.2-2.6c-1.3-4-2.5-7.9-3.7-11.9
			c-0.1-0.4-0.1-0.8-0.1-1.1c0.4,0,0.9,0,1.3,0.2c5.2,2.3,8,6.7,10.3,11.6c0.4,0.9,0.8,1.7,1.2,2.6c0.3-0.8,0.1-1.4,0.2-2
			c0.2-2.4-1.7-3.7-2.9-5.2c-2.4-3-4.2-6.8-8.2-7.9c-2.6-0.7-3.6-2.3-4.2-4.6c-0.3-1.1-1-2.1-1.5-3.2c-0.1,0.1-0.3,0.2-0.4,0.2
			C249.3,617.6,252.1,625.8,255,633.9z M280.8,675.6c0.4,0.3,0.5,0.4,0.5,0.3c0,0,0.1-0.1,0.1-0.1c0.1-1.5,0.2-3.1,0.4-4.6
			c0.4-3.4,0.4-3.4-2.9-4.2c-4.8-1.2-9.7-2-13.5-5.3c-1.1-0.9-2.1-2.6-2.2-4c-0.2-2.3,0.4-4.7,0.6-7.1c0-0.4-0.4-0.9-0.6-1.4
			c-0.3,0.4-0.8,0.7-0.9,1.1c-0.3,2.2-0.6,4.4-0.6,6.5c0,2.3,0.9,4.1,2.9,5.4c4.4,2.8,9.1,4.5,14.2,5.5c0.8,0.1,1.9,1.1,2,1.8
			C281,671.5,280.8,673.7,280.8,675.6z M272,634c-0.6,0.3-1.8,0.5-2.5,1.2c-1.5,1.8-2.9,3.6-4.1,5.7c-1,1.8-1.7,3.8-2.4,5.7
			c-0.1,0.3,0.3,0.9,0.5,1.3c0.4-0.4,0.9-0.7,1-1.2c0.2-0.8-0.1-1.8,0.3-2.4C267.2,640.8,269.7,637.4,272,634z M260.3,648.3
			c0.6-3.2-1.9-9.5-3.5-9.5C257.9,642.1,259.1,645.2,260.3,648.3z M223.9,385.4c0.2,0.1,0.4,0.2,0.6,0.2c1.6-3.9,3.1-7.7,4.7-11.6
			c-0.2-0.1-0.4-0.2-0.6-0.2C227.1,377.7,225.5,381.5,223.9,385.4z M218.2,658.3c-1.3-2.6-5.2-4-7-2.7
			C213.5,656.5,215.8,657.4,218.2,658.3z"/>
		<path d="M209.3,446.9c-1.2,2.8-2.4,5.7-3.5,8.6c-1.2,3.3-2.3,6.6-3.6,9.9c-1.4,3.5-2.9,6.9-4.3,10.4c-0.7,1.9-1.3,3.9-1.7,5.9
			c-1,6.2,2,11.5,4,17c1.2,3.1,2.4,6.2,3.5,9.2c-0.2,0.1-0.4,0.2-0.7,0.3c-0.7-1.3-1.3-2.6-2-3.9c-0.2,0.1-0.4,0.1-0.6,0.2
			c0.7,2.5,1.1,5,2.1,7.4c1.3,3.2,3.1,6.1,4.6,9.2c0.7,1.4,1.2,2.9,2,4.2c1,1.6,0.9,4.1,3.5,4.6c0.3,0.1,0.5,0.6,0.7,1
			c2.6,5.4,5.4,10.7,7.8,16.2c2.5,5.8,4.5,11.7,6.7,17.6c1.7,4.6,3.2,9.2,4.7,13.8c0.4,1.1,0.5,2.3,0.7,3.5c0.2,1.1,0.4,1.7,1.5,2.5
			c1.1,0.8,1.4,2.9,2,4.4c0.2,0.4,0,1,0.2,1.2c2.1,2.3,2.4,5.4,3.6,8.1c1,2.3,3.2,3.9,2.8,7c-0.2,2,1.2,4.1,1.7,6.2
			c0.8,3,1.5,6.1,2.3,9.2c0.1,0.4-0.1,0.9-0.6,1.4c-0.5-1.7-0.9-3.5-1.4-5.2c-0.3-1.2-0.7-2.3-1.2-3.4c-0.2-0.4-0.6-0.6-0.9-0.9
			c-0.3,0.4-0.9,0.9-0.8,1.2c0.3,2.1,0.6,4.4,1.3,6.4c2.7,7.3,5.5,14.5,8.2,21.8c3.3,9,6.6,18.1,9.9,27.1c0.7,1.8,1.2,3.7,1.5,5.7
			c-0.6-1.4-1.3-2.8-1.8-4.2c-3-7.5-6.1-14.9-8.9-22.5c-2-5.4-3.5-10.9-5.5-16.3c-1.5-4-3.5-7.9-5.2-11.9c-0.6-1.5-1.7-1.9-3.2-2.1
			c-4.8-0.7-8.4,1.8-12.1,4.2c-1.6,1-2.5,2.6-2.3,4.6c0.7,6.2,1.3,12.4,2.3,18.6c0.3,1.8,1.5,3.6,2.7,5c2.4,2.7,1.9,5.6,0.6,8.2
			c-0.3,0.5-1,1-1.6,1.2c-2.1,0.9-4.3,1.6-6.4,2.4c-0.1-0.3-0.2-0.5-0.4-0.8c1.4-0.7,2.8-1.4,4.2-2c0.9-0.4,1.8-0.7,2.6-1.1
			c2.1-1.1,3-4.2,1.4-5.9c-3.7-3.9-4.5-8.8-5.1-13.7c-0.5-4.3-0.8-8.7-0.9-13.1c-0.1-3.4,1.4-5.3,4.6-6.5c1.1-0.4,2.1-1,3.2-1.5
			c1.6-0.7,3-1.9,5.2-0.8c2.3,1.2,3.9-0.2,3.3-2.7c-0.8-3.2-2-6.4-2.9-9.6c-1.1-3.9-2.1-7.8-3.2-11.7c-0.3-1.1-0.8-2.1-1.2-3.2
			c-2-5-4.1-10.1-6-15.1c-1.4-3.7-2.7-7.5-4.1-11.3c-0.1-0.3,0-0.7,0.3-1.1c2.3,5.8,4.6,11.6,6.9,17.5c0.2,0,0.4,0,0.6-0.1
			c0-0.6,0.1-1.2-0.1-1.7c-4.1-11.3-8.1-22.7-12.3-33.9c-0.8-2.2-2.6-4-3.7-6.2c-1.3-2.5-2.3-5.1-3.5-7.6c-0.6-1.3-1.4-2.5-2.1-3.6
			c-2.3-3.5-5-6.9-6.8-10.6c-1.8-3.8-2.7-8-4.1-12c-1.6-4.6-3.4-9.1-5-13.7c-0.3,0-0.6,0-0.9,0c-0.9,3.4-1.6,6.8-2.6,10.1
			c-1.1,3.4-2.3,6.8-3.6,10.1c-1.1,3-2.2,6-3.3,8.9c-3.7,9.6-7.5,19.1-11,28.7c-2.7,7.4-4.9,15-7.5,22.5c-3.4,9.7-7,19.3-10.4,28.9
			c-1.2,3.4-2,6.9-3.2,10.3c-1.3,3.7-2.7,7.4-4,11.1c-0.2,0.6-0.4,1.2-0.6,1.9c-0.4,1.5,0,2,1.6,1.5c4.3-1.3,7.6,0.7,8,5.3
			c0.3,3.7,2,6.7,3.9,9.7c0.3,0.5,0.4,1,0.7,1.5c0.3,0.5,0.7,0.9,1.1,1.4c0.5-0.5,1.4-0.8,1.5-1.4c0.6-2.7,1.3-5.5,1.5-8.3
			c0.4-4.3,0.6-8.6,0.9-12.9c0-0.7,0.2-1.3,0.2-2c0.3-4.7,2.6-6.4,7.2-7.3c5.3-1,10.6-1.6,16-2.3c2.6-0.3,5.3-0.5,7.8-0.2
			c3.2,0.4,5.4,2.4,5.6,5.8c0.3,5.2,4.3,7.3,7.8,9.7c0.8,0.6,1.8,0.8,1.6,2.2c-0.3,1.4-1,1.6-2.2,1.7c-1.4,0.1-2.9,0.4-4.2,1
			c-1.4,0.7-2.6,1.5-1.8,3.7c0.6,1.5,0.2,3.6-0.3,5.3c-1.3,3.7-0.8,7.2,0.3,10.8c1.4,4.8-0.2,7.2-5.5,7.7c0.7-0.3,1.4-0.7,2.2-1
			c3.1-1.3,3.8-2.9,2.5-5.9c-1.2-2.8-1.5-5.6-0.7-8.6c0.4-1.4,0.6-2.8,0.8-4.2c0.3-1.6,0.3-3.2-1.9-3.6c-0.3-0.1-0.8-0.7-0.7-1
			c0.2-0.6,0.5-1.2,1-1.5c2.6-1.5,5.3-2.8,8-4.3c0.3-0.2,0.5-0.4,0.9-0.6c-1.9-1.5-3.6-3.1-5.5-4.4c-2-1.4-2.7-3.4-3.2-5.6
			c-1-4.4-4.5-6.9-8.8-6.1c-2.4,0.5-4.9,0.6-7.3,0.8c-4.3,0.5-8.7,1-13,1.6c-3.7,0.5-5.6,2.6-6,7.4c-0.4,4.3-0.1,8.6-0.3,12.9
			c-0.1,2.3-0.5,4.6-0.9,6.9c-0.3,1.5-0.7,3,1.2,3.6c1.7,0.6,3-0.1,3.7-1.9c0.1-0.3,0.4-0.6,0.8-0.8c-0.8,2,1.6,4-0.4,6.3
			c-0.7,0.9,0.3,3.3,0.5,5c0.1,0.6-0.1,1.3-0.2,1.9c-0.2,0-0.4,0-0.7,0c-0.6-2.2-1.2-4.4-1.7-6.6c-0.3-1.3-4.1-3.9-5.3-3.4
			c-0.6,0.3-1.3,1.2-1.3,1.9c-0.1,2.1,0.1,4.3,0.3,6.4c0.1,1.7,0.4,3.3,0.3,5c-1.8-7.5-0.2-16.2-8.1-21.5c1.9-2.2,1.2-4.4,0.1-6.6
			c-1.2-2.6-2.3-3-5-2.2c-0.8,0.3-2,0-2.6,0.5c-1.1,0.9-1.9,2.2-2.9,3.3c0.3,0.2,0.7,0.5,1,0.6c2.5,0.6,5,1.1,7.4,1.9
			c0.5,0.2,0.7,1.2,1,1.9c-0.6-0.1-1.2-0.1-1.7-0.3c-3-1-5.6-3.1-9.2-1.4c-1.5,0.7-3.4,0.3-5.1,0.5c-1,0.1-2.2,0.4-2.8,1
			c-2,2.1-4.9,0.9-7.1,2.2c-2.2,1.2-4.7,1.7-7,2.6c-3.6,1.5-5.2-0.1-6.2-3.4c-0.9-3,0.2-5.8,1.3-8.5c2.3-5.4,3.2-10.7,1.2-16.5
			c-0.9-2.7-0.6-5.9-1-8.8c-0.3-2.2-0.8-4.3-1.2-6.5c-0.4-2.1-0.9-4.3-1.4-6.4c-0.3-1.2-0.3-2.7-1.1-3.5c-3.8-3.9-7.9-7.5-14-6.5
			c-4.4,0.7-8.9,1.1-13.2,2.3c-6.2,1.7-12.6,3.5-18.3,6.4c-7.2,3.6-8.2,6.4-6.9,15.9c0.2,1.8,0.3,2.8-1.7,3.7c-2.3,1-4.1,3-6,4.7
			c-0.3,0.2,0.1,1.7,0.6,2.1c1.9,1.6,3.9,3.2,6.1,4.5c3.4,2,4.7,5.3,5.8,8.8c0.9,2.9,1.5,5.9,2.4,8.9c0.3,1,1,2.2,1.8,2.7
			c3.7,2.4,4.7,6.2,5.9,10c0.8,2.5-2,6.1-5.5,7.6c-3.9,1.7-7.8,3.3-11.9,4.8c1.8-1,3.4-2.1,5.3-2.9c2.7-1.2,5.5-2.2,8.3-3.3
			c1.6-0.7,3.3-3.8,2.9-5.8c-0.8-3.7-2-7.1-5.6-9.2c-0.9-0.5-1.6-1.9-2-3c-0.8-2.3-1.3-4.7-1.8-7.2c-1-5.6-4.2-9.4-8.9-12.1
			c-1.4-0.8-2.6-2-3.8-3c-1.3-1.1-1.3-2.4-0.1-3.5c1.9-1.8,4-3.4,5.9-5.2c0.6-0.6,1.2-1.8,1-2.7c-0.7-4.3-0.3-8.5,1.4-12.3
			c1.3-2.9,4.4-4.3,7.3-5.4c7.3-2.6,14.7-5.1,22.1-7.6c0.6-0.2,1.2-0.3,1.8-0.4c3.2-0.2,6.4-0.2,9.5-0.5c2.8-0.2,5.1,0.9,7.2,2.6
			c0.4,0.3,0.8,0.7,1.3,1c4.2,2.3,6,5.7,5.7,10.5c-0.1,1.6,1.1,3.1,1.5,4.8c0.4,1.7,1.1,3.5,0.9,5.1c-0.6,4.1,0.6,7.9,1.7,11.6
			c1.6,5.5-0.1,10.4-2.1,15.3c-1,2.4-1.9,4.6-1.2,7.3c0.6,2.4,1.9,3.1,4.2,2.4c3.1-1,6.3-2.1,9.4-3c1.9-0.5,3.1-1.6,3.8-3.4
			c2.6-6.8,5.3-13.6,7.8-20.5c3.7-9.9,7.2-19.8,10.8-29.8c0.7-1.9,1.7-3.7,2.3-5.7c0.2-0.6-0.4-1.5-0.6-2.3
			c-0.1-0.5-0.3-1.1-0.2-1.5c3.5-10.1,7-20.2,10.6-30.2c2.6-6.9,5.5-13.7,8.2-20.5c4.7-11.9,9.1-23.9,14.2-35.6
			c2.1-4.9,1-9.1-0.5-13.5c-1.1-3.5-2.7-6.9-4.1-10.3c-0.3-0.8-1.3-1.3-1.5-2.1c-3.1-10.3-6.8-20.4-11.6-30.1
			c-2.4-4.8-4.1-10-6.4-14.9c-1.4-2.9-3.3-5.7-5.2-8.3c-0.4-0.5-1.7-0.8-2.4-0.6c-11.9,3.5-23.2,8.3-34.4,13.6
			c-1.6,0.8-3.3,1.5-5,2.1c-1.5,0.5-2,1.2-2,2.9c0.1,8.1,2.4,15.9,3.5,23.8c0.9,6.1,0.8,12.4,2,18.4c1.4,6.8,0.2,13.9,3.1,20.5
			c0.6,1.4-0.1,3.4-0.4,5.1c-0.3,1.8-0.9,3.5-1.4,5.2c-0.2,0.6-0.7,1.1-1.2,1.4c-5.3,3.6-10.6,7.2-16,10.7c-6.1,4-12.3,8.1-18.5,12
			c-4.1,2.6-8.4,5-12.6,7.4c-4.4,2.5-8.9,4.9-13.4,7.2c-1.4,0.7-2,1.8-2,3.3c-0.1,3.1-0.1,6.1-0.3,9.2c-0.5,4.8-1.2,9.6-1.7,14.4
			c-0.5,5.6-0.9,11.1-1.2,16.7c-0.2,2.6-0.1,5.2-0.2,7.9c0,0.4-0.5,1.1-0.9,1.2c-0.4,0.1-1.3-0.3-1.3-0.6c-0.9-5-5.3-6.3-9-8
			c-7.9-3.6-16.1-6.4-24.6-8.3c-4.8-1.1-8.1-6.4-7.1-11.1c1.1-5.6,2.5-11.1,3.3-16.7c1.3-8.8,2.2-17.6,3.5-26.4
			c1.1-6.9,2.5-13.8,3.9-20.7c1.7-8.8,3.5-17.5,5.4-26.3c2.3-10.4,4.6-20.7,7.1-31c0.9-3.7,2.4-7.3,3.4-11c1-3.5,1.6-7,2.5-10.5
			c1.3-5.3,2.8-10.5,4.2-15.8c1.3-5,2.7-10.1,3.7-15.2c1.4-7.2,2.5-14.4,3.6-21.6c0.7-4.8,0.9-9.7,1.8-14.4c1.3-7.1,3-14.2,4.6-21.3
			c1.8-7.9,3.9-15.7,5.5-23.6c1.1-5.4,1.4-10.9,2.2-16.4c0.5-3.8,1.2-7.5,1.8-11.3c0.6-3.5,1-7,1.7-10.4c1.3-6.6,2.9-13.2,4.2-19.8
			c0.5-2.3,0.5-4.8,0.7-7.1c0.7-7,1.5-13.9,1.9-20.9c0.2-3.3,0.2-6.7-0.6-9.8c-1.3-5.2,0.6-9.8,2.1-14.5c0.2-0.6,1.5-1.5,1.9-1.3
			c1.3,0.5,2.8,1.2,3.5,2.3c1.5,2.7,2.3,5.8,3.8,8.4c4,6.8,5.5,14.4,7.8,21.8c1.8,5.9,3.6,11.9,5.9,17.7c3,7.5,6.4,14.8,9.7,22.2
			c2.6,5.9,5.2,11.8,7.8,17.8c2.7,6.2,5.2,12.5,7.8,18.7c3.1,7.3,6.3,14.6,9.2,22c2.4,6.1,4.5,12.3,6.7,18.4
			c2.6,7.1,5,14.3,7.9,21.3c1.5,3.8,3.8,7.3,5.6,11c1.9,4,3.5,8.3,5.6,12.3c2.3,4.3,4.7,8.6,7.5,12.7c2,2.9,1.9,6.4,3,9.4
			c2.9,7.6,6,15.1,8.7,22.8c2.2,6.1,4,12.4,6.1,18.6c2,6.3,4.1,12.6,6.4,19.5c0.8-1,1.2-1.3,1.3-1.7c2.7-7.9,5.4-15.7,8.2-23.6
			c1.5-4.4,3.2-8.8,4.9-13.1c0.1-0.3,0.3-0.8,0.6-0.9c2.5-1,2.3-3.5,3.2-5.5c0.3-0.7,1-1.2,1.5-1.7c0,0.8,0.3,1.6,0.1,2.3
			c-4,10.7-8.1,21.4-12.1,32c-1.9,5.1-3.6,10.3-5.6,15.4c-1.7,4.4-3.7,8.8-5.5,13.2c-3.7,9.4-7.5,18.8-11,28.3
			c-3.3,9.2-6.3,18.6-9.4,27.9c-0.7,2-1,4.2-1.8,6.2c0-0.5,0.1-1,0.1-1.6c-0.2,0-0.3-0.1-0.5-0.1c-1,2.9-3,5.9-2.7,8.7
			c0.4,3.5-1.2,6-2.1,8.8c-1.4,4-2.7,8.1-4.2,12.1c-1.7,4.7-3.5,9.4-5.3,14.2c-3.1,8.3-6.2,16.6-9.3,24.9c-1.8,4.7-3.8,9.4-5.6,14.2
			c-0.1,0.2,0.6,1.1,0.8,1.1c2.9-0.1,4-1.2,4.8-4c1.1-3.6,1.7-7.4,3.6-10.5c4.4-7.3,5.7-15.7,8.8-23.4c2.1-5.1,4-10.4,5.8-15.6
			c1.5-4.3,2.7-8.7,4-13c0.7-2.4,1.6-4.7,2.4-7.1c1.2-3.6,2.2-7.3,3.4-11c4.6-13.1,9.3-26.2,14-39.3c1.6-4.6,3-9.4,4.8-13.9
			c3.4-8.6,6.9-17.1,10.5-25.6c2.6-6,5.2-12,8.1-17.8C206.6,448.7,208.2,447.9,209.3,446.9L209.3,446.9z M150.3,387.4
			c0.2-0.1,0.4-0.1,0.6-0.2c1.6,3.9,3.2,7.8,4.9,11.7c0.9,2.1,4,2.5,5.4,0.7c0.2-0.3,0.4-0.8,0.3-1.1c-0.5-1.5-0.8-3-1.5-4.4
			c-3.6-7.1-7.5-14.2-11.1-21.3c-5.1-10.1-8.6-20.9-12.4-31.5c-4-11.3-8.7-22.3-13.2-33.4c-3.5-8.6-7.2-17.1-10.8-25.6
			c-0.9-2.1-1.7-4.2-2.6-6.3c-0.4-0.9-1.3-1.6-1.7-2.5c-1.7-3.8-3.2-7.7-4.8-11.5c-2-4.8-4.1-9.5-6-14.4c-2-5.1-3.9-10.3-5.7-15.5
			c-1.8-5.3-3.4-10.7-5-16.1c-1.1-3.7-1.1-7.9-4.5-10.6c-0.8-0.7-1-2.1-1.6-3.1c-0.7-1.3-1.6-2.6-2.6-4.2c-0.9,1.6-1.7,2.5-1.8,3.5
			c-0.2,2.5-0.7,5.4,0.2,7.6c0.5,1.4,1.2,2.5,1.1,4.1c-0.8,10.4,2,20.3,3.5,30.5c0.6,3.9,1.2,7.8,1.8,11.7c0.9,6,1.7,12,2.5,18.1
			c0.1,0.5-0.1,1-0.1,1.5c-0.3,0-0.5,0.1-0.8,0.1c-0.4-1.6-0.9-3.1-1.1-4.7c-1.3-8.7-2.6-17.4-3.9-26.1c-0.5-3.3-1.1-6.5-1.8-9.7
			c-0.1-0.5-0.8-0.8-1.2-1.2c-0.2,0.3-0.4,0.5-0.4,0.8c-0.1,2.1,0.1,4.2-0.2,6.3c-0.5,3.5-1.3,6.9-2,10.4c-0.9,4.1-2.2,8.1-3,12.1
			c-1,4.6-1.7,9.3-2.5,14c-0.9,4.9-2.1,9.9-2.4,14.9c-0.6,9.8-3.3,19.1-5.1,28.6c-1.1,5.9-2.8,11.6-4,17.5
			c-1.3,6.1-2.4,12.2-3.4,18.4c-1.3,8.1-2.6,16.2-3.7,24.4c-1,7.5-3,14.8-5.5,21.9c-1.4,3.9-2.7,7.8-3.7,11.8
			c-1.2,5.2-1.9,10.5-3.4,15.7c-3,10.5-5.4,21.1-7.8,31.8c-2.5,11.5-4.8,23.1-7.1,34.7c-0.7,3.3-1.1,6.6-1.6,9.9
			c-1.5,8.9-3,17.9-4.5,26.8c-0.7,4.5-1.2,9-2,13.4c-0.6,3.4-1.5,6.8-2.2,10.2c-0.3,1.6-0.3,3.4-0.4,5.4c1.3-1.5,2.1-2.8,3.3-3.7
			c5.9-4.2,11.8-8.5,17.9-12.3c6.9-4.2,14.2-8,21.4-11.9c10.4-5.8,20.8-11.4,31.1-17.3c6.8-3.9,13.3-8.4,19.9-12.6
			c4.1-2.6,8.4-4.9,10.8-9.4c1.7-3.2,3.1-6.8,1.3-9.9c-2.5-4.3-5.6-8.4-9.3-11.8c-5.2-4.8-11.1-8.8-16.6-13.2
			c-2.5-2-5.2-3.9-6.9-6.5c-2.3-3.5-2.5-7.6-0.8-11.6c0.3-0.8,0.7-1.7,0.8-2.6c1.3-8,2.8-16.1,3.9-24.2c1.6-12.7,3.5-25.3,3.5-38.1
			c0-6.3,0-12.6-0.2-18.9c-0.2-6.9-0.7-13.8-1-20.6c-0.2-5.3,0.6-10.6-0.9-15.9c-0.4-1.5-0.1-3.2-0.1-5.3c0.9,3.1,1.7,5.9,2.5,8.6
			c0.3,1.1,0.7,2.3,0.7,3.5c0.1,7.7,0,15.3,0.1,23c0.1,6.8,0.3,13.5,0.6,20.3c0.6,10.4-1.3,20.7-1.8,31c-0.2,2.9-0.5,5.7-0.7,8.6
			c-0.2,2.6,0,5.3-0.5,7.8c-0.9,5-2.2,10-3.3,15c-0.2,0.9-0.4,1.9-0.6,2.9c1.5-1,2.3-2.4,3.5-3.4c3.5-2.8,6.9-5.6,10.6-7.9
			c3.8-2.4,7.9-4.6,12-6.4c10.2-4.7,20.5-9.1,30.7-13.6c3.2-1.4,6.3-3.1,9.6-3.8c3-0.6,1.6-1.8,1.1-3.1c-0.3-0.7-0.5-1.5-0.7-2.2
			c-0.6-2.3-1.2-4.5-1.8-6.8C150.9,389.1,150.6,388.2,150.3,387.4z M53.5,539.1c-0.2-0.7-0.2-1.6-0.5-1.7c-0.5-0.1-1.3,0.1-1.8,0.4
			c-3.5,1.9-7.1,3.8-10.6,5.7c-3,1.6-6,3.2-8.9,5.1c-4.4,2.9-8.7,5.8-12.9,9c-1.9,1.4-3.4,3.4-5,5.2c-1.4,1.6,0.6,2.8,0.9,4.2
			c0.3,1.9,1.6,2.1,3.1,2.4c1.8,0.3,3.6,0.4,5.3,1.1c8.1,3.1,16.6,5.5,24.1,10c2.6,1.6,2.9,1.2,3.1-1.9c0.3-4.6,0.5-9.2,0.9-13.8
			C51.9,556.1,52.7,547.5,53.5,539.1z M111.5,447.1c0.2,0,0.4,0,0.6,0c0.9,5.7,1.8,11.3,2.8,17c0.2,0,0.4-0.1,0.6-0.1
			c-0.8-6.7-1.6-13.3-2.3-20c-0.2,0-0.4,0-0.6,0.1c-0.2,0.3-0.4,0.6-0.7,1.1c0-0.6,0-0.8-0.1-1.1c-0.6-6.5-1.3-13-2-19.5
			c0-0.4-0.9-1.2-1.1-1.1c-2.4,1.2-4.9,2.5-7.2,4c-2.6,1.7-5,3.5-7.4,5.4c-5.2,4.3-10.3,8.7-8.3,16.8c0.6,2.3,1.4,4.3,3.2,5.9
			c2.7,2.3,5.5,4.5,8.1,6.7c2.5,2.1,4.9,4.4,7.4,6.5c3.3,2.6,6.7,5,10.1,7.5c0.4,0.3,0.9,0.5,1.7,0.9
			C114.7,466.9,113.1,457,111.5,447.1z M166.9,409.8c0.4-4.5-1.5-6.4-5.2-5.8c-1.9,0.3-2,1-1.1,2.6c1.3,2.4,2.4,4.9,3.5,7.5
			c2.3,5.6,4.5,11.2,6.7,16.9c4.1,10.5,8.2,21,12.2,31.5c1.6,4.3,3,8.7,4.5,13.1c0.1,0.3,0.5,0.5,0.7,0.8c0.2-0.1,0.5-0.1,0.7-0.2
			c-0.2-2.1-0.1-4.3-0.7-6.3c-1.6-5.4-3.6-10.8-5.3-16.2c-1-3-1.7-6.1-2.9-9c-2.6-6.6-5.5-13.1-8.2-19.6c-0.7-1.7-0.7-3.8-1.5-5.5
			c-1.2-2.7-3-5.1-4.2-7.7c-0.7-1.5-0.8-3.2-1.2-4.9c0.2,0,0.4-0.1,0.6-0.1C165.9,407.8,166.4,408.8,166.9,409.8z"/>
		<path d="M421.2,584.9c-0.2,0.6-0.3,1.3-0.6,1.7c-1.2,1.6-2.6,3.1-3.7,4.8c-0.9,1.4-0.7,2.9,0.6,4.2c1.8,1.8,3.4,3.8,5.4,6
			c0.2-0.7,0.4-1.1,0.4-1.5c0-6.6-0.4-13.2,0-19.7c0.3-6.4,0.6-12.8-0.6-19.2c-1.1-5.9-0.4-11.7,0.8-17.5c0.3-1.4,0.2-2.9,0.2-4.3
			c0-10.8,0-21.7-0.1-32.5c0-4.4-0.6-8.7-0.6-13.1c0-6.7,0.3-13.4,0.5-20.1c0.1-4.6,0-9.2,0.2-13.9c0.5-7.9,1.4-15.8,1.7-23.6
			c0.2-5.7-0.4-11.4-0.5-17.2c0-2.9,0.2-5.8,0.6-8.6c0.8-5.7-0.2-8.1-5.1-11c-6.7-3.9-13.5-7.5-20.9-9.9c-0.8-0.3-1.7-0.4-2.8-0.7
			c0.4,0.5,0.6,0.8,1,1.3c-0.4-0.1-0.6,0-0.7-0.1c-3.6-2.1-7.2-4.1-10.6-6.5c-0.9-0.6-1.6-2.4-1.4-3.6c2.5-16.2,5-32.3,7.7-48.5
			c1.8-10.6,3.7-21.2,6.1-31.6c2.2-9.5,5.1-18.9,7.5-28.3c1.6-6.4,3-12.8,4.5-19.3c1.5-6.4,3-12.8,4.5-19.2c0.6-2.7,1-5.4,1.6-8.1
			c1.9-8.3,3.9-16.7,5.7-25c1.6-7.3,2.9-14.7,4.3-22c0.8-4.2,1.6-8.5,2.4-12.7c0.4-2.2,0.6-4.3,0.9-6.5c0.1-0.5-0.1-1-0.1-1.1
			c1.8-0.8,3.6-1.6,5.5-2.2c0.7-0.2,1.7-0.4,2.4-0.1c3,1.4,5.4,3.3,6.2,6.7c1.3,6,2.6,12.1,3.9,18.1c1.1,4.8,2.4,9.6,3.4,14.5
			c1.6,7.6,2.9,15.3,4.4,22.9c1.8,9.1,3.4,18.3,5.6,27.4c1.1,4.5,3.5,8.7,5.2,13c0.7,1.9,1.2,3.9,1.5,5.9c1,7.1,1.6,14.3,2.9,21.3
			c1.4,7.5,3.6,14.8,5.4,22.2c0.9,4,1.6,8.1,2.5,12.1c1.2,5.3,2.4,10.5,3.6,15.7c1.1,5,2.2,9.9,3.5,14.9c1.4,5.3,3.2,10.4,4.4,15.7
			c0.8,3.6,0.8,7.3,1.5,11c1,5.7,2.3,11.4,3.6,17.1c1.3,5.8,2.7,11.7,4.2,17.5c1.7,6.5,3.8,12.9,5.4,19.4c2,8,3.4,16.1,5.6,24
			c2.3,8.2,5.3,16.3,8.2,24.4c1.2,3.2,3.1,6.2,4.5,9.3c0.7,1.5,1.2,3,1.5,4.6c1.1,5,2.5,9.9,3.1,14.9c0.6,4.8-1,9.2-4,13.1
			c-1.7,2.2-3.4,4.4-5.1,6.7c-0.3,0.5-0.5,1.3-0.4,1.8c1.4,5.8,2.9,11.6,4.4,17.4c1.1,4.3,2.2,8.6,3.8,12.7
			c1.4,3.7,3.6,7.1,5.4,10.7c0.9,1.9,1.8,3.7,2.6,5.6c0.1,0.3-0.2,0.8-0.4,1.3c-0.4-0.3-0.8-0.6-1.1-0.9c-1.9-2.2-3.7-4.6-5.8-6.6
			c-0.8-0.7-2.4-0.5-3.4-1.1c-4.5-2.5-8.9-5.1-13.4-7.6c-3.1-1.7-6.4-3.3-9.5-5.1c-3.4-1.9-4.1-6.8-1.5-9.7c5.4-6.1,10.9-12,16.4-18
			c2.4-2.7,5-5.2,7.3-8c3-3.6,0.1-7.5-3.2-8.3c-1.6-0.4-3.2-1.1-4.7-1.8c-7.2-3.3-14.8-4.7-22.6-5.4c-0.1,0-0.2,0.1-0.4,0.2
			c0.4,3.9,1.4,7.8,1.1,11.6c-0.1,2-0.6,3.9,0.1,5.8c0.4,1,1.4,2.1,1.2,2.9c-0.6,2.7,0.3,5.1,0.8,7.7c0.7,3.8,0.7,7.8,1.1,11.6
			c0.1,0.6,0.4,1.2,0.3,2.1c-0.4-0.6-1-1.2-1.1-1.9c-1.5-8.1-3.1-16.1-4.3-24.3c-0.5-3.8-0.2-7.7-0.3-11.5c0-1.1,0-2.3-0.2-3.4
			c-0.1-0.4-0.4-1-0.7-1.1c-2.2-0.9-4.5-1.7-6.4-2.4c-0.9,0.6-1.6,1.4-2.3,1.5c-1.2,0.1-2-0.6-2.2-2c-1.6-11.8-3.2-23.6-4.8-35.4
			c-0.8-5.8-1.4-11.6-2.5-17.4c-0.8-4.4-2.4-8.7-3.1-13.1c-0.9-5.2-1.2-10.6-2-15.9c-0.8-5.4-1.7-10.9-2.8-16.3
			c-1.6-8.3-3.4-16.5-4.8-24.9c-0.8-4.8-0.7-9.7-1.3-14.5c-0.6-5.2-1.5-10.4-2.1-15.7c-0.7-6.1-1.3-12.2-2.1-18.4
			c-0.7-6.4-1.6-12.8-2.3-19.2c-0.2-2.1-0.1-4.1-0.3-6.2c-0.5-6.1-1.1-12.2-1.5-18.3c-0.4-5.6-0.6-11.2-1.1-16.8
			c-0.3-3.5-1.2-6.9-1.8-10.3c-0.6-3.5-1.3-6.9-1.8-10.4c-0.4-2.7-0.4-5.5-0.6-8.2c0-0.8,0.1-1.7,0.6-2.6c0.5,2.9,1.1,5.8,1.6,8.8
			c1,6.1,2.1,12.1,2.8,18.2c0.8,6.6,1.1,13.2,1.7,19.8c0.5,5.5,1.2,11,1.7,16.6c0.2,1.7,0.2,3.5,0.4,5.2c0.6,5.5,1.2,10.9,1.7,16.4
			c0.5,4.5,0.7,9.1,1.3,13.6c0.7,6.3,1.6,12.5,2.5,18.8c0.7,4.9,1.4,9.7,2,14.5c0.7,5.8,1.1,11.7,1.9,17.5c0.8,5.1,2.1,10.2,3,15.3
			c1.2,6.8,2,13.7,3.2,20.5c1.4,8.1,3,16.1,4.4,24.2c0.9,5,1.7,10,2.4,15.1c1,6.6,1.9,13.2,2.7,19.8c0.6,4.6,1,9.2,1.5,13.8
			c0.2,2.4,1.7,3.5,3.6,4.7c5,3.1,10.6,3.2,16,4.2c2.1,0.4,4.2,0.9,6.3,1.3c1.1,0.2,2.2,1.2,3.1-0.4c0.1-0.2,1-0.1,1.5,0
			c2.5,1,5,2,7.5,3c1.9,0.8,3.8,1.7,5.8,2.4c0.2,0.1,1.1-0.7,1.1-1c-0.2-2.7-0.4-5.4-0.8-8c-0.6-3.6-1.1-7.2-2.2-10.7
			c-0.8-2.7-2.8-5-3.7-7.7c-3.3-9.6-6.5-19.3-9.4-29.1c-2.1-7.3-3.3-14.9-5.3-22.2c-2.5-9.6-5.5-19-8.1-28.5
			c-1.1-3.9-1.9-7.9-2.6-11.9c-1-5.3-1.6-10.6-2.6-15.9c-0.9-4.6-1.9-9.1-3-13.6c-1.7-7-3.5-13.9-5.3-20.9
			c-1.1-4.3-2.2-8.6-3.2-12.9c-1.6-7-3.3-14-4.8-21c-1.9-8.9-3.7-17.9-5.7-26.8c-1.2-5.6-2.6-11.1-4-16.6c-0.2-0.7-0.3-1.5,0.1-2.4
			c0.9,4,1.9,8.1,2.8,12.1c0.2,0,0.3-0.1,0.5-0.1c-0.5-2.8-0.6-5.8-1.4-8.5c-1.6-5-3.7-9.9-5.3-14.9c-1.4-4.1-2.7-8.2-3.5-12.4
			c-2.1-10.8-3.9-21.6-5.9-32.4c-1.5-7.9-3.2-15.8-4.8-23.7c-1.3-6.1-2.5-12.1-3.8-18.2c-0.2-0.8-0.8-1.7-1.5-2.3
			c-1.7-1.3-3.5-2.5-5.2-3.7c-1.8-1.3-4.9,1.2-5.1,2.6c-0.5,3.6-1.1,7.1-1.7,10.7c-1,6.4-2,12.7-3.2,19.1c-0.9,4.4-2.2,8.7-3.2,13.1
			c-1.8,7.7-3.6,15.4-5.3,23.1c-1,4.5-1.7,9-2.7,13.5c-1.7,7.4-3.6,14.8-5.4,22.2c-1.8,7.4-3.6,14.9-5.5,22.3
			c-1.5,5.7-3.3,11.4-4.7,17.1c-0.9,3.8-1.3,7.7-2,11.5c-1.2,6.6-2.6,13.3-3.7,19.9c-0.9,5.2-1.5,10.4-2.3,15.6
			c-0.9,6.3-1.9,12.6-2.8,18.9c-0.5,3.4-1,6.7-1.5,10.1c-0.1,0.5,0.2,1,0.3,1.5c0.6-0.2,1.3-0.3,1.7-0.6c4.2-3.8,8.4-7.6,12.6-11.4
			c3-2.7,6-5.3,9.2-7.8c6.7-5.4,13.5-10.7,20.3-16c0.6-0.5,1.4-0.7,2-1.1c0.3-0.2,0.8-0.4,0.8-0.5c0-2.8,1.8-1.3,2.8-1
			c1.4,0.3,2.1,0.6,1.8-1.4c-0.6-4.7-1.3-9.4-1.4-14.1c-0.2-6.3,0.3-12.7,0.2-19c-0.1-7.5-0.6-15.1-0.9-22.6
			c-0.3-6.6-0.8-13.3-0.9-19.9c-0.2-9.1,0-18.2,0-27.3c0-1.7-0.4-3.3-0.5-5c-0.1-5.8,0-11.6,0.5-17.5c0.2,1.5,0.5,2.9,0.6,4.4
			c0.7,9,0.9,18,0.8,27.1c-0.1,10.2,0.7,20.3,1,30.5c0.2,7.6,0.4,15.2,0.6,22.8c0.1,8.1,0.2,16.1,0.3,24.2c0,2.3,0.4,4.6,0.7,7
			c0.3,3.5,0.7,7,0.9,10.6c0,0.6-0.6,1.4-1.1,1.7c-2.1,0.9-3.2,2.1-3.2,4.7c0.2,6.3,0.1,12.6-0.2,18.8c-0.2,5.7-0.8,11.5-1.1,17.2
			c-0.2,4.3-0.1,8.6-0.2,12.9c0,1.6,0,3.2-0.3,4.8c-0.3,2,0.6,2.7,2.3,3.4c6.5,2.6,13.1,5.1,19.4,8.2c2.9,1.4,5.3,3.9,7.8,6
			c0.6,0.5,0.8,1.5,1.2,2.2c-0.2,0.1-0.3,0.2-0.5,0.3c-1.9-1.6-3.9-3.1-5.7-4.8c-3.5-3.2-7.9-4.9-12.3-6.5
			c-3.5-1.3-6.9-2.8-10.3-4.2c-0.5-0.2-1.1-0.4-2-0.7c-0.2,4-0.5,7.8-0.7,11.5c-0.2,3.8-0.5,7.6-0.6,11.5c-0.2,4.5-0.4,9-0.5,13.6
			c-0.2,12.2-0.5,24.4-0.6,36.7c0,4.4,0.5,8.7,0.4,13.1c-0.1,7.7-0.7,15.3-0.8,22.9c-0.1,3.7,0.2,7.4,0.3,11.1
			c0.2,8.2,0.4,16.4,0.7,24.6c0.1,2.2,0.2,4.3,0.1,6.5c-0.1,1.4-0.9,2.8-1.1,4.2c-0.3,2.3-0.5,4.6-0.6,6.9
			c-0.3,4.2-0.6,8.4-0.8,12.5c-0.1,1.2,0.1,2.4,0.3,3.6c0.1,0.4,0.5,1,0.8,1.1c4,0.8,7.3,4.1,11.7,3.3c0.4-0.1,1,0.5,1.4,0.8
			c-0.5,0.2-0.9,0.5-1.4,0.6c-2.5,0.6-4.9,0.1-7.1-1.2c-0.5-0.3-1-0.4-1.5-0.5c-3.4-0.9-4.3-0.3-4.1,3.1c0.3,5.9,0.9,11.8,1.7,17.6
			c0.2,1.6,1.4,3,1.9,4.6c0.4,1.3,1,2.7,0.8,3.9c-0.6,2.8-1.9,5.4-2.6,8.2c-0.4,1.6-0.4,3.5-0.1,5.1c0.7,3.7,0.5,7.3,0.4,11
			c-0.1,4.8,0.9,9.5,1.4,14.3c0.2,1.7,0.4,3.3,0.2,5c-1.6-7.3-3.4-14.5-2.7-22.1c0.4-4.3,1-8.8-1.2-13.1c-0.5-0.9-0.7-2.6,1.2-3.4
			c1.4-0.6,1.8-5.3,0.9-6.6c-0.6-0.9-1-1.9-1.2-2.9c-0.5-2.2-4.5-5.5-6.7-5.4c-0.3,0-0.7-0.2-0.8-0.5c-1.5-4.3-5.1-7-8.1-10.1
			c-3.5-3.7-7-7.4-10.8-10.8c-1.9-1.7-4.3-3-6.7-3.7c-1.8-0.5-4.1,0.1-6.1,0.7c-4.1,1.3-8,3.1-12.1,4.4c-3.4,1.1-6.9,1.9-10.4,2.7
			c-4.2,1-8.5,1.9-12.7,2.8c-2.4,0.5-4.9,0.6-7.2,1.3c-2.4,0.7-4.6,1.7-7.2,2.3c0.3-0.4,0.5-0.9,0.9-1c3.9-1.7,7.7-3.2,12.1-3.5
			c4.6-0.3,9.2-2,13.8-3.2c3.9-1,7.8-2.2,11.7-3.4c4.8-1.5,9.6-3.2,14.4-4.7c0.9-0.3,2.1,0,3,0.3c4.3,1.5,7.9,3.9,10.9,7.4
			c0.5,0.6,1.3,0.9,1.8,1.4c0.7,0.6,1.4,1.1,1.8,1.9c0.9,1.7,1.5,1.9,2.8,0.4c1.7-2,3.5-3.9,5.2-5.8
			C420.6,584.7,420.9,584.8,421.2,584.9z M432,399.4c-0.2-0.4-0.7-0.9-0.7-1.4c0.1-4.2,0.3-8.4,0.5-12.6c0.1-0.9,0.6-1.9,0.8-2.8
			c0.2-1.4,0.3-2.7,0.4-4.1c0.3-4.7,0.8-9.3,0.9-14c0.1-3.7-0.2-7.4-0.2-11.1c0-2.7,0.4-5.4,0.6-8.2c0.1-1.5-0.6-2.1-1.8-1.3
			c-2.8,1.9-6.2,3.2-5.8,7.8c0.4,4.7-0.2,9.6-0.2,14.3c0,1.6,0.5,3.2,0.6,4.8c0.2,2.9,0.2,5.7,0.2,8.6c0,5.8-0.1,11.6-0.3,17.3
			c0,1.1-0.7,2.2-0.7,3.3c0,2.3,0.5,4.7,0.5,7c0.1,5.7,0,11.5-0.1,17.2c-0.1,7.7-0.3,15.4-0.7,23.1c-0.2,4.7-0.9,9.3-1.1,14
			c-0.2,4.2,0.1,8.4,0,12.6c-0.1,6.8-0.5,13.5-0.5,20.3c0,5.6,0.4,11.1,0.4,16.7c0,4.1-0.3,8.2-0.4,12.3c-0.1,3.2,0,6.4,0.1,9.7
			c0.2,6.5,0.4,13,0.5,19.5c0,3.8-0.3,7.6-0.3,11.4c0,1.8,0.6,3.7,0.6,5.5c0,6.5-0.2,12.9-0.3,19.4c0,4.4,0.1,8.9,0,13.3
			c-0.1,3.1,2.6,3.7,4.6,5.8c0-1.2,0-1.8,0-2.4c-0.5-7.7-1.4-15.4-1.5-23.2c-0.1-8.8,0.4-17.6,0.8-26.4c0.1-2,0.7-4.1,1.2-6.1
			c0.2-0.9,0.7-1.8,0.7-2.6c-0.2-6.3-0.5-12.6-0.6-18.9c-0.1-5-0.3-10.1-0.2-15.1c0.1-8.4,0.6-16.9,0.7-25.3
			c0.1-10.7-0.1-21.3-0.1-32c0-5.8-0.2-11.6,0-17.4c0.2-6.3,0.9-12.7,1.2-19c0.2-4.8,0.3-9.7,0.3-14.5c0-1.5-0.4-3-0.6-4.5
			C431.6,400.2,431.9,399.8,432,399.4z M425.8,349.6c-0.4,0.2-0.6,0.3-0.8,0.4c-4.5,3.3-9.2,6.4-13.5,10.1
			c-7.1,6.1-15.1,11.2-21,18.6c-1.8,2.3-2,3.8,0.7,5.2c3.3,1.7,6.8,2.9,10.2,4.4c8.4,3.6,17,6.9,24,13.1c0.1,0.1,0.3,0,0.2,0
			c0.2-2.5,0.3-5,0.5-7.4c0.2-3.2,0.3-6.3,0.4-9.5c0-1.7-0.2-3.3-0.3-5c-0.1-2.6-0.2-5.2-0.3-7.8c-0.2-3.6-0.7-7.3-0.7-10.9
			C425.1,357.1,425.5,353.5,425.8,349.6z M528.3,568.1c-0.1-0.7-0.1-1.1-0.3-1.5c-1.2-3.1-2.5-6.1-3.5-9.2c-2.6-8.4-5-16.9-7.4-25.3
			c-0.5-1.6-1-2.1-2.3-0.8c-2.6,2.7-5.4,5.3-7.9,8.1c-2.4,2.8-4.7,5.7-6.8,8.7c-1.1,1.5-0.4,4.2,1.2,5.3c1.3,0.9,2.7,1.7,4.1,2.5
			c5.1,2.9,10.1,5.9,15.3,8.7C523.1,565.8,525.6,566.8,528.3,568.1z"/>
		<path d="M209.3,446.9c-1.2-0.8-1.2-1.6-0.6-3c2.6-6.5,4.9-13.1,7.4-19.6c1.9-5,3.9-9.9,5.7-14.8c1.9-5.1,3.6-10.2,5.6-15.3
			c1.5-3.8,3.2-7.5,4.9-11.2c0.3-0.7,1.2-1.2,1.4-1.9c0.3-0.7,0.1-1.6,0.2-2.4c0-0.7,0-1.4,0.3-2c0.5-1.2,0.7-2.3-0.8-3
			c-0.4-0.2-1-0.4-1.2-0.8c-1.1-1.9-2.6-1-4.5-0.7c0.3-1.2,0.7-2.2,0.9-3.2c1-5.9,3.3-11.3,5.9-16.6c1.8-3.5,3-7.3,4.4-11
			c1.7-4.4,3.3-8.8,4.9-13.3c2.4-7,4.6-14.1,7.2-21.1c2.2-6,4.9-11.8,7.3-17.8c1.5-3.8,3-7.6,4.5-11.3c2.7-6.5,5.4-13.1,8.1-19.6
			c2-4.9,4.2-9.7,6-14.6c1.6-4.2,2.8-8.6,4.1-12.9c0.1-0.2,0-0.4,0.1-0.5c2.2-2.1,2.6-5.2,3.8-7.8c1.3-2.8,2.2-5.8,3.4-8.7
			c2.1-5.6,4.2-11.2,6.5-16.6c0.8-1.8,2.4-3.3,3.6-5c0.1-0.2,0.2-0.5,0.4-1.2c-0.7,0.6-1.1,0.9-1.5,1.2c0-0.3-0.1-0.4-0.1-0.6
			c1.9-4.1,3.9-8.2,5.7-12.4c1.3-3,2.2-6.2,3.4-9.2c1.2-3.1,2.4-6.2,3.8-9.3c0.2-0.5,0.9-1.1,1.2-1c2.2,0.6,4.8,0.9,6.4,2.2
			c4.5,3.8,6.8,8.9,7.2,14.8c0.3,4.3,0.5,8.6,1.1,12.9c0.7,5.1,1.7,10.2,2.7,15.2c1.2,6.2,2.4,12.3,3.8,18.5
			c1.7,7.2,3.6,14.3,5.4,21.4c0.3,1.3,0.2,2.7,0.4,4.1c0,0.3,0,0.8,0.2,1c2.2,2.3,2.2,5.3,2.4,8.2c0.4,3.9,1.3,7.5,2.6,11.2
			c1.7,4.6,2.3,9.7,3.5,14.5c0.8,3.3,1.9,6.4,2.7,9.7c3.3,13.1,7.7,26,9.8,39.4c1.3,8.3,3.2,16.4,4.9,24.7
			c1.1,5.4,1.9,10.8,3.2,16.2c2.3,9.5,4.7,19,7.2,28.4c2.2,8.4,4.6,16.7,6.6,25.2c1.8,7.9,3,16,4.6,23.9c2,9.9,4.2,19.7,6.5,29.5
			c0.7,3,1.8,5.9,2.9,8.9c0.2,0.5,0.9,0.9,1.3,1.3c0.2-0.2,0.3-0.3,0.5-0.5c0.3,0.6,0.9,1.2,1,1.9c0.1,0.5-0.2,1.3-0.5,1.7
			c-2,2.3-4.5,4.3-5.9,6.9c-2,4-3.2,8.4-4.7,12.6c-1.3,3.8-2.7,7.7-3.8,11.6c-1,3.5-1.7,7.1-2.6,10.6c-0.6,2.6-1.3,5.1-2,7.6
			c-2,7.3-2.9,14.9-3.4,22.4c-0.1,1.1,0.6,2.2,0.7,3.3c0.1,0.5-0.2,1.1-0.3,1.7c-0.5-0.3-1.1-0.4-1.4-0.8c-3.6-5.2-7-10.5-10.6-15.6
			c-2.2-3.1-4.6-6-7.1-8.9c-3.7-4.3-6.7-9.3-12.3-11.5c-1.9-0.8-2.6-2.4-2.9-4.4c-1.6-11.7-3.5-23.5-5-35.2
			c-1.1-8.8-1.8-17.6-2.6-26.5c-0.5-5.8-0.8-11.6-1.3-17.4c-0.1-0.9-0.5-2-1.1-2.7c-3.5-4-7.1-7.8-10.5-11.8
			c-8.6-10-19.1-17.7-30.1-24.5c-8.6-5.3-17.7-9.7-26.8-14.3c-3.2-1.6-6.9-2.4-10.2-3.9c-2.1-1-3.9-2.9-5.9-4.3
			c-0.8-0.6-2-0.7-2.9-1.2c-0.7-0.3-1.2-0.9-1.5-1.7c1,0.5,2,1,3.1,1.5c0.3-1.4,0.5-2.6,0.6-3.8c0-0.3-0.1-0.8-0.3-1
			c-3.4-2.7-6.8-5.4-10.5-8.2c0.2,7.2-3.9,12.6-6.1,18.6c-1.9,5-3.9,10-5.8,15.1c-2.1,5.5-4.1,11.1-6.1,16.7
			c-1.7,4.6-3.2,9.2-5,13.7c-0.9,2.4-2.3,4.6-3.4,6.9C209.5,446,209.4,446.5,209.3,446.9C209.3,446.9,209.3,446.9,209.3,446.9z
			 M314.7,269.2c0.3,0,0.7-0.1,1-0.1c0.3,3.4,0.6,6.8,0.8,10.3c0.1,1.4-0.6,2.8-0.5,4.3c0.1,5.4,0.4,10.9,0.6,16.3
			c0.2,6.4-1.3,12.8,0.7,19.2c1.2,4,1.3,8.4,2,12.6c0.6,3.9,1.6,7.8,1.9,11.7c0.4,4.9,1.6,9.6,3.2,14.3c1.4,4.1,3.2,8.2,3.6,12.5
			c0.8,7.2,0.5,14.5,1,21.7c0.5,7.9,1.3,15.8,2.2,23.6c1,9.9,2.4,19.8,3.2,29.8c0.7,8.8,0.4,17.6,1.3,26.4
			c1.3,12.6,3.2,25.2,4.9,37.8c0.5,3.4,1,6.8,1.5,10.1c0.5,3.3,0.8,6.6,1.3,9.9c0.2,1.4,1.2,2.4,2.7,1.6c3-1.5,6.3-2.7,8.9-4.7
			c7-5.4,13.6-11.1,20.4-16.7c5.7-4.7,11.4-9.3,17.2-13.8c1.8-1.4,1.7-2.7,1-4.7c-1.8-5.3-3.8-10.6-5-16.1
			c-2.9-13.1-5.3-26.3-8.2-39.4c-2.8-12.6-6-25.1-8.9-37.6c-2.7-11.4-5.4-22.9-7.9-34.3c-2.4-11-4.3-22-6.7-32.9
			c-2.2-10.2-4.8-20.3-7.3-30.4c-1.1-4.5-2.3-9.1-3.5-13.6c-1.9-6.9-3.9-13.7-5.8-20.5c-0.2-0.7-0.5-1.5-0.6-2.3
			c-1.1-5.7-2-11.4-3.2-17c-2.1-9.2-4.4-18.4-6.5-27.6c-1.7-7.2-3.4-14.4-4.7-21.6c-1.3-7-2.2-14.1-3.2-21.1
			c-0.2-1.4-0.3-2.9-0.8-4.3c-0.3-0.9-1.1-1.7-1.6-2.6c-1.1-2-2-4.2-3.3-6.1c-1.6-2.3-3.9-2.2-5,0.3c-2,4.8-3.7,9.7-5.6,14.5
			c-1.5,3.7-3.1,7.4-4.4,11.2c-2.4,7-4.4,14.2-7,21.2c-2.8,7.6-5.8,15.1-9,22.5c-2.7,6.2-6,12.1-8.7,18.2
			c-4.2,9.6-8.4,19.2-12.3,28.9c-4.6,11.5-9,23.2-13.4,34.8c-3.5,9.2-6.9,18.5-10.4,27.7c-2.9,7.6-5.8,15.2-8.6,22.8
			c-0.3,0.9-0.6,2.2-0.1,2.8c1,1.2,2.3,2.2,3.6,3.2c3.4,2.4,6.8,4.8,10.3,7.1c1.6,1.1,3.3,2,5,2.8c0.4,0.2,1.6-0.1,1.7-0.4
			c1-2.7,2-5.5,2.7-8.3c0.5-1.9,0.4-4.1,1-6c1.1-4.1,2.6-8,3.7-12.1c3.8-14.1,7.3-28.3,11.2-42.3c3.3-11.7,7-23.3,10.7-34.9
			c3.6-11.1,7.5-22.1,11.2-33.2c2.3-6.9,4.6-13.7,6.7-20.6c3-10.1,7.6-19.9,8.4-30.7c0.2,1.6,0.6,3.3,0.3,4.8
			c-1,4.7-2.2,9.3-3.4,13.9c-1.4,5-2.7,10.1-4.3,15c-3.3,10.2-6.9,20.4-10.3,30.6c-1.6,4.9-3.1,9.9-4.8,14.8
			c-2.3,6.9-4.6,13.7-6.8,20.6c-1.6,5-3,10.1-4.3,15.1c-2.3,8.4-4.4,16.8-6.6,25.2c-1.9,7.3-3.8,14.6-5.7,21.9
			c-1.6,5.8-3.6,11.5-4.8,17.3c-1.2,5.2-2.4,10.3-6.3,14.3c-1.1,1.1-1,1.8,0.5,2.5c5.8,2.5,11.5,5.2,17.2,7.8
			c5.1,2.4,10.3,4.6,15.1,7.5c5.6,3.3,10.8,7.1,16.1,10.8c10.9,7.6,20.5,16.7,29,27c0.8,0.9,1.7,1.7,2.6,2.5
			c0.2-0.1,0.4-0.2,0.6-0.3c-1.4-24.2-6.5-48-5.9-72.4c0-0.1,0.5-0.5,0.4-0.9c-0.6-3.3-0.9-6.8-2.1-9.9c-2.1-5.5-3.9-11-4.5-16.9
			c-0.6-5.7-1.9-11.3-2.9-17c-0.8-4.8-1.7-9.7-2.5-14.5c-0.3-1.7-0.2-3.5-0.2-5.2c0-6.8,0-13.5,0.1-20.3c0-2.9,0.2-5.7,0.3-8.6
			c0.1-1.9,0.2-3.8,0.2-5.7C314.9,272,314.8,270.6,314.7,269.2z M371.9,558.8c2.8-19.7,10.9-37.6,16.2-56.7c-0.9,0.7-1.5,1-2,1.4
			c-3,2.4-6,4.8-8.9,7.3c-2.7,2.3-5.2,5-8,7.1c-6.2,4.7-12.7,9.3-18.9,13.9c-0.3,0.2-0.4,1.3-0.2,1.6c1,1.3,2.2,2.5,3.3,3.7
			c3.4,3.6,7,7.1,10.2,10.8C366.4,551.3,368.9,554.9,371.9,558.8z"/>
		<path d="M574.1,608.6c1.1-2.9,2.6-5.2,6-6c3.7-0.9,5.1-2.8,5-6.6c-0.2-5.6-0.7-11.1-1.1-16.7c-0.3-3.3,0.2-6.5,1.2-9.7
			c0.7-2.3,0.6-5.2,0-7.5c-0.6-2.4-2.1-4.7-3.7-6.7c-3.9-4.9-9.7-4.7-14.9-4c-6.2,0.8-12.3,2.7-18.3,4.4c-2.5,0.7-3.1,2.2-2.8,4.9
			c0.3,2.5,0.6,5,0.5,7.5c-0.1,1.3-0.6,2.9-1.6,3.7c-2.7,2.3-2.6,5.5-3.2,8.5c-0.3,1.6-0.9,3.1-1.4,4.7c-0.4,1.1-1.3,2.3-1.2,3.3
			c0.3,2.5-1.1,4.1-2.7,5c-1.6,0.9-3.8,1-5.7,1.1c-5.4,0.1-10.7-0.3-16.1-0.1c-3,0.1-6,0.6-8.8,1.5c-4.3,1.4-7.6,4.3-8.9,8.9
			c0,0.1,0,0.2-0.1,0.3c-1.9,3.7-3.9,7.3-5.8,11.1c-1.4,2.7-2.7,5.5-3.9,8.2c-1.6,3.7-3,7.5-4.6,11.2c-0.8,1.9-1.9,3.7-3.3,5.4
			c0.9-2.6,1.8-5.2,2.8-7.7c2.4-5.6,5-11.2,7.5-16.9c0.3-0.6,0.3-1.4,0.1-2c-0.7-2.5-1.7-4.9-2.3-7.4c-1.5-6.3-2.5-6.4-9.3-6.3
			c-4.1,0-8.2,1.3-11.5,4.1c-0.9,0.8-1.8,2-1.9,3.1c-0.2,5.2-0.1,10.4,0,15.6c0.1,2.2,2.1,2.8,3.8,2.7c2.6,0,3.7,0.9,3.8,3.5
			c0.1,1.8,0.6,3.7,0.8,5.5c0.2,1.8-0.2,3.1-2.3,4c-2.3,0.9-4.3,2.6-6.4,4c0.4-0.6,0.7-1.4,1.3-1.9c1.7-1.3,3.6-2.3,5.3-3.7
			c0.6-0.5,1.2-1.6,1.2-2.4c0-1.8-0.3-3.7-0.8-5.5c-0.3-0.9-1.1-2.1-1.9-2.3c-5.2-1.2-5.8-1.2-6.2-6.4c-0.3-4.7,0.4-9.4,0.8-14.1
			c0.3-2.6,2.5-3.7,4.6-4.7c4.5-2.1,9.3-3.2,14.3-2.4c2.2,0.3,3.6,1.8,4.2,3.7c0.9,2.7,1.6,5.5,2.4,8.3c0.2,0.6,0.7,1.1,1.1,1.7
			c0.4-0.5,0.9-1,1.2-1.6c2.3-4.2,4.3-8.6,6.9-12.7c2.1-3.3,5.6-4.9,9.6-5.3c3.1-0.4,6.2-1.1,9.2-1.3c2.4-0.2,4.9,0.3,7.3,0.4
			c2.3,0.1,4.6,0.2,6.8,0.2c3.4,0.1,5.5-1.7,5.9-5.1c0.1-0.6,0.1-1.3,0.5-1.7c2.8-3.6,2.3-8.1,3.5-12.1c0.2-0.7,0.3-1.6,0.8-1.9
			c3.5-2.8,3.2-6.5,2.7-10.2c-0.1-0.8-0.2-1.5-0.2-2.3c-0.2-3.2,0.8-4.7,3.9-5.6c5.2-1.4,10.5-3.1,15.8-4.2c4.8-1,9.8-1.1,14.4,1.4
			c6.4,3.4,9.8,14.8,6.5,21c-1.2,2.2-0.3,5.5-0.2,8.3c0.2,6.4,1.8,12.8,0,19.3c-0.7,2.4-2.6,3.6-4.5,3.8c-2.9,0.3-4.1,2-5.4,4.1
			C575,608.2,574.5,608.3,574.1,608.6L574.1,608.6z"/>
		<path d="M274.1,633.9c2.5,0.6,4.9,1.3,7.3,1.9c0.8-3.6,1.7-7.4,2.6-11.2c1-4.5,3.8-7.1,8.3-8.1c6.7-1.5,13.4-1.4,20.2-1.1
			c2.4,0.1,4.8,0.1,7.2,0.1c6.1,0.1,11.7,1.8,16.8,5c1.3,0.8,1.4,0.1,1.7-1c2.3-6.8,1.2-13.8,1.5-20.7c0-1.1,0.3-2.1,0.4-3.2
			c0.3,0,0.6,0,0.8,0.1c0,1.8,0,3.5,0,5.3c0,4.1,0.3,8.2,0.1,12.3c-0.2,2.7-1.1,5.4-1.5,8.2c-0.1,0.5,0.4,1.3,0.8,1.6
			c2,1.3,4,2.7,6.2,3.6c4,1.6,5.9,4.3,6.4,8.5c0.3,2.7,1.2,5.4,1.5,8.1c0.2,2.1,0,4.2,0,6.3c0,2.3,0,4.6-0.3,7
			c-0.2-0.9-0.7-1.9-0.6-2.7c0.7-7.8-1-15.3-2.9-22.7c-0.2-0.9-1.3-1.9-2.2-2.4c-4-2.6-8.1-5.1-12.2-7.5c-4.5-2.6-9.4-4.4-14.7-4.6
			c-6.1-0.2-12.3-0.7-18.4-0.5c-4.9,0.2-10.1-0.1-14.2,3.3c-1.4,1.2-2.9,2.8-3.3,4.4c-1,4-1.4,8.2-2.1,12.4
			c-0.1,0.6-0.6,1.2-0.9,1.8c-0.5-0.3-1.1-0.6-1.6-0.9c-2.2-1.1-4.5-2.1-6.7-3.2C274.2,634,274.1,633.9,274.1,633.9z"/>
		<path d="M456.2,649.5c-0.3,1-0.8,2.2-1,3.5c-0.4,2.5-0.8,4.9-1.1,7.4c-0.2,1.6-0.4,3.1-0.6,4.7c-0.2,0-0.5,0-0.7,0
			c0.1-1.8,0.2-3.6,0.4-5.4c0.2-1.8,0.7-3.6,1-5.4c0.2-1.6,0.3-3.2,0.2-4.7c0-0.8-0.4-1.7-0.8-2.3c-4-5-4.1-10.3-1.2-15.8
			c2-3.9,2-7.3-0.3-11.3c-2-3.4-2.1-7.6-0.7-11.6c1.2-3.5,1.1-7.1,0.5-10.7c-0.3-1.7-0.4-3.4-1.1-4.9c-0.9-1.7-2.3-3.2-3.6-4.7
			c-0.4-0.4-0.9-0.7-1.5-1.2c2.3-0.1,5.4,2.1,5.9,4.2c1.3,5.4,2.2,10.8,1.2,16.3c-0.3,1.7-0.9,3.5-1,5.2c-0.2,3,0.5,5.9,2.1,8.5
			c1.9,3.1,1.2,6.3-0.2,9.5c-0.8,1.8-1.4,3.6-2.2,5.4c-1,2.4-0.3,4.6,0.8,6.7C453.3,645.3,454.9,647.4,456.2,649.5z"/>
		<path d="M255,633.9c-2.8-8.1-5.7-16.3-8.5-24.4c0.1-0.1,0.3-0.2,0.4-0.2c0.5,1.1,1.2,2.1,1.5,3.2c0.6,2.3,1.5,3.9,4.2,4.6
			c4,1.1,5.8,4.9,8.2,7.9c1.2,1.5,3.1,2.8,2.9,5.2c0,0.6,0.2,1.3-0.2,2c-0.4-0.9-0.8-1.7-1.2-2.6c-2.3-4.9-5.1-9.3-10.3-11.6
			c-0.4-0.2-0.9-0.1-1.3-0.2c0,0.4,0,0.8,0.1,1.1c1.2,4,2.4,8,3.7,11.9c0.3,0.9,0.8,1.8,1.2,2.6C255.5,633.7,255.2,633.8,255,633.9z
			"/>
		<path d="M280.8,675.6c0-1.9,0.2-4.1-0.1-6.2c-0.1-0.7-1.2-1.6-2-1.8c-5.1-0.9-9.8-2.7-14.2-5.5c-2-1.3-2.9-3.2-2.9-5.4
			c0-2.2,0.3-4.4,0.6-6.5c0.1-0.4,0.6-0.7,0.9-1.1c0.2,0.5,0.6,1,0.6,1.4c-0.2,2.4-0.8,4.8-0.6,7.1c0.1,1.4,1.1,3,2.2,4
			c3.8,3.3,8.8,4.2,13.5,5.3c3.3,0.8,3.3,0.8,2.9,4.2c-0.2,1.5-0.3,3.1-0.4,4.6c0,0-0.1,0.1-0.1,0.1
			C281.3,675.9,281.2,675.9,280.8,675.6z"/>
		<path d="M272,634c-2.3,3.4-4.8,6.8-7.1,10.3c-0.4,0.6-0.1,1.7-0.3,2.4c-0.1,0.5-0.7,0.8-1,1.2c-0.2-0.4-0.6-1-0.5-1.3
			c0.7-2,1.3-4,2.4-5.7c1.1-2,2.5-3.9,4.1-5.7C270.2,634.5,271.4,634.3,272,634z"/>
		<path d="M260.3,648.3c-1.2-3.1-2.3-6.2-3.5-9.5C258.4,638.8,260.9,645.2,260.3,648.3z"/>
		<path d="M574,608.6c0,1.1-0.2,2.2-0.1,3.4c0.1,2.4,0.2,4.7,0.4,7.1c0,0.7,0.2,1.4,0.1,2.1C572.6,617,572.2,612.8,574,608.6
			C574.1,608.6,574,608.6,574,608.6z"/>
		<path d="M223.9,385.4c1.6-3.9,3.1-7.7,4.7-11.6c0.2,0.1,0.4,0.2,0.6,0.2c-1.6,3.9-3.1,7.7-4.7,11.6
			C224.4,385.5,224.1,385.5,223.9,385.4z"/>
		<path d="M218.2,658.3c-2.4-0.9-4.8-1.8-7-2.7C213,654.3,216.9,655.7,218.2,658.3z"/>
		<path class="st0" d="M150.3,387.4c0.3,0.9,0.6,1.7,0.9,2.6c0.6,2.3,1.2,4.5,1.8,6.8c0.2,0.7,0.4,1.5,0.7,2.2
			c0.5,1.3,1.9,2.5-1.1,3.1c-3.3,0.7-6.4,2.5-9.6,3.8c-10.3,4.5-20.5,8.9-30.7,13.6c-4.1,1.9-8.1,4-12,6.4
			c-3.7,2.4-7.2,5.2-10.6,7.9c-1.2,1-2,2.4-3.5,3.4c0.2-1,0.4-1.9,0.6-2.9c1.1-5,2.4-10,3.3-15c0.5-2.6,0.3-5.2,0.5-7.8
			c0.2-2.9,0.5-5.7,0.7-8.6c0.6-10.3,2.4-20.6,1.8-31c-0.4-6.7-0.5-13.5-0.6-20.3c-0.1-7.7,0-15.3-0.1-23c0-1.2-0.4-2.4-0.7-3.5
			c-0.8-2.7-1.6-5.5-2.5-8.6c0,2-0.4,3.8,0.1,5.3c1.5,5.3,0.6,10.6,0.9,15.9c0.3,6.9,0.8,13.8,1,20.6c0.2,6.3,0.2,12.6,0.2,18.9
			c0,12.8-1.9,25.5-3.5,38.1c-1,8.1-2.5,16.1-3.9,24.2c-0.1,0.9-0.5,1.7-0.8,2.6c-1.7,4-1.5,8.1,0.8,11.6c1.7,2.6,4.4,4.5,6.9,6.5
			c5.5,4.4,11.4,8.4,16.6,13.2c3.6,3.4,6.8,7.5,9.3,11.8c1.8,3.1,0.4,6.7-1.3,9.9c-2.5,4.5-6.8,6.8-10.8,9.4
			c-6.6,4.2-13.1,8.6-19.9,12.6c-10.3,6-20.7,11.6-31.1,17.3c-7.1,4-14.4,7.7-21.4,11.9c-6.2,3.8-12,8.1-17.9,12.3
			c-1.2,0.8-2,2.1-3.3,3.7c0.1-2,0.1-3.7,0.4-5.4c0.6-3.4,1.6-6.8,2.2-10.2c0.8-4.5,1.3-9,2-13.4c1.5-8.9,3-17.9,4.5-26.8
			c0.6-3.3,0.9-6.7,1.6-9.9c2.3-11.6,4.6-23.1,7.1-34.7c2.4-10.6,4.8-21.3,7.8-31.8c1.5-5.2,2.2-10.5,3.4-15.7
			c0.9-4,2.3-7.9,3.7-11.8c2.5-7.1,4.4-14.4,5.5-21.9c1.1-8.1,2.4-16.2,3.7-24.4c1-6.1,2.1-12.3,3.4-18.4c1.2-5.9,2.9-11.6,4-17.5
			c1.8-9.5,4.5-18.8,5.1-28.6c0.3-5,1.6-9.9,2.4-14.9c0.8-4.7,1.5-9.3,2.5-14c0.9-4.1,2.1-8.1,3-12.1c0.8-3.4,1.5-6.9,2-10.4
			c0.3-2.1,0.2-4.2,0.2-6.3c0-0.3,0.3-0.5,0.4-0.8c0.4,0.4,1.1,0.8,1.2,1.2c0.7,3.2,1.3,6.5,1.8,9.7c1.3,8.7,2.6,17.4,3.9,26.1
			c0.2,1.6,0.8,3.1,1.1,4.7c0.3,0,0.5-0.1,0.8-0.1c0.1-0.5,0.2-1,0.1-1.5c-0.8-6-1.6-12.1-2.5-18.1c-0.6-3.9-1.2-7.8-1.8-11.7
			c-1.5-10.1-4.3-20.1-3.5-30.5c0.1-1.6-0.6-2.7-1.1-4.1c-0.9-2.2-0.4-5-0.2-7.6c0.1-1,0.9-1.9,1.8-3.5c1,1.6,1.9,2.9,2.6,4.2
			c0.6,1,0.8,2.4,1.6,3.1c3.5,2.8,3.4,6.9,4.5,10.6c1.6,5.4,3.2,10.8,5,16.1c1.8,5.2,3.7,10.4,5.7,15.5c1.9,4.8,4,9.6,6,14.4
			c1.6,3.8,3.1,7.7,4.8,11.5c0.4,0.9,1.3,1.6,1.7,2.5c1,2,1.8,4.2,2.6,6.3c3.6,8.5,7.3,17,10.8,25.6c4.5,11.1,9.2,22.1,13.2,33.4
			c3.8,10.7,7.3,21.4,12.4,31.5c3.6,7.2,7.4,14.2,11.1,21.3c0.7,1.4,1.1,2.9,1.5,4.4c0.1,0.3,0,0.8-0.3,1.1
			c-1.4,1.8-4.5,1.4-5.4-0.7c-1.6-3.9-3.2-7.8-4.9-11.7C150.7,387.2,150.5,387.3,150.3,387.4z"/>
		<path class="st0" d="M53.5,539.1c-0.8,8.5-1.7,17-2.4,25.5c-0.4,4.6-0.6,9.2-0.9,13.8c-0.2,3.1-0.5,3.5-3.1,1.9
			c-7.6-4.5-16-6.9-24.1-10c-1.7-0.6-3.5-0.7-5.3-1.1c-1.5-0.3-2.7-0.4-3.1-2.4c-0.2-1.4-2.2-2.5-0.9-4.2c1.5-1.8,3.1-3.8,5-5.2
			c4.2-3.2,8.5-6.1,12.9-9c2.8-1.9,5.9-3.4,8.9-5.1c3.5-1.9,7-3.8,10.6-5.7c0.5-0.3,1.3-0.5,1.8-0.4
			C53.3,537.4,53.3,538.4,53.5,539.1z"/>
		<path class="st0" d="M111.5,447.1c1.6,9.9,3.2,19.8,4.9,30.1c-0.8-0.4-1.3-0.6-1.7-0.9c-3.4-2.5-6.8-4.9-10.1-7.5
			c-2.6-2-4.9-4.3-7.4-6.5c-2.7-2.3-5.5-4.4-8.1-6.7c-1.8-1.5-2.6-3.5-3.2-5.9c-2-8.1,3.1-12.5,8.3-16.8c2.3-2,4.8-3.8,7.4-5.4
			c2.3-1.5,4.7-2.7,7.2-4c0.2-0.1,1,0.7,1.1,1.1c0.7,6.5,1.3,13,2,19.5c0,0.2,0,0.5,0.1,1.1c0.4-0.6,0.5-0.8,0.7-1.1
			c0.2,0,0.4,0,0.6-0.1c0.8,6.7,1.6,13.3,2.3,20c-0.2,0-0.4,0.1-0.6,0.1c-0.9-5.7-1.8-11.3-2.8-17
			C112,447.1,111.8,447.1,111.5,447.1z"/>
		<path class="st0" d="M166.9,409.8c-0.5-1-0.9-2-1.4-3c-0.2,0-0.4,0.1-0.6,0.1c0.4,1.6,0.5,3.4,1.2,4.9c1.2,2.6,3,5.1,4.2,7.7
			c0.8,1.7,0.8,3.7,1.5,5.5c2.7,6.6,5.5,13.1,8.2,19.6c1.2,2.9,1.9,6,2.9,9c1.8,5.4,3.7,10.7,5.3,16.2c0.6,2,0.5,4.2,0.7,6.3
			c-0.2,0.1-0.5,0.1-0.7,0.2c-0.2-0.3-0.6-0.5-0.7-0.8c-1.5-4.3-2.8-8.8-4.5-13.1c-4-10.5-8.1-21-12.2-31.5
			c-2.2-5.6-4.4-11.3-6.7-16.9c-1-2.5-2.2-5.1-3.5-7.5c-0.8-1.5-0.7-2.3,1.1-2.6C165.3,403.4,167.2,405.3,166.9,409.8z"/>
		<path class="st0" d="M432,399.4c-0.1,0.3-0.4,0.7-0.4,1.1c0.2,1.5,0.6,3,0.6,4.5c0,4.8-0.1,9.7-0.3,14.5c-0.3,6.3-1,12.7-1.2,19
			c-0.2,5.8,0,11.6,0,17.4c0,10.7,0.2,21.3,0.1,32c-0.1,8.4-0.5,16.9-0.7,25.3c-0.1,5,0.1,10.1,0.2,15.1c0.2,6.3,0.5,12.6,0.6,18.9
			c0,0.9-0.5,1.7-0.7,2.6c-0.4,2-1.1,4-1.2,6.1c-0.4,8.8-0.9,17.6-0.8,26.4c0.1,7.7,1,15.5,1.5,23.2c0,0.6,0,1.2,0,2.4
			c-2-2.1-4.6-2.7-4.6-5.8c0.1-4.4,0-8.9,0-13.3c0.1-6.5,0.2-12.9,0.3-19.4c0-1.8-0.6-3.7-0.6-5.5c0-3.8,0.4-7.6,0.3-11.4
			c-0.1-6.5-0.3-13-0.5-19.5c-0.1-3.2-0.2-6.4-0.1-9.7c0.1-4.1,0.4-8.2,0.4-12.3c0-5.6-0.5-11.1-0.4-16.7c0-6.8,0.4-13.5,0.5-20.3
			c0.1-4.2-0.2-8.4,0-12.6c0.2-4.7,0.9-9.3,1.1-14c0.3-7.7,0.5-15.4,0.7-23.1c0.1-5.7,0.1-11.5,0.1-17.2c0-2.3-0.5-4.7-0.5-7
			c0-1.1,0.7-2.2,0.7-3.3c0.1-5.8,0.2-11.6,0.3-17.3c0-2.9-0.1-5.7-0.2-8.6c-0.1-1.6-0.6-3.2-0.6-4.8c0-4.8,0.6-9.6,0.2-14.3
			c-0.4-4.7,3-5.9,5.8-7.8c1.2-0.8,1.9-0.2,1.8,1.3c-0.2,2.7-0.6,5.4-0.6,8.2c-0.1,3.7,0.3,7.4,0.2,11.1c-0.1,4.7-0.6,9.3-0.9,14
			c-0.1,1.4-0.2,2.7-0.4,4.1c-0.2,1-0.7,1.9-0.8,2.8c-0.3,4.2-0.4,8.4-0.5,12.6C431.3,398.5,431.8,399,432,399.4z"/>
		<path class="st0" d="M425.8,349.6c-0.3,3.8-0.7,7.5-0.7,11.2c0,3.6,0.4,7.3,0.7,10.9c0.1,2.6,0.2,5.2,0.3,7.8
			c0.1,1.7,0.3,3.3,0.3,5c-0.1,3.2-0.2,6.3-0.4,9.5c-0.1,2.5-0.3,4.9-0.5,7.4c0.1,0-0.2,0.1-0.2,0c-7-6.2-15.5-9.6-24-13.1
			c-3.4-1.5-6.9-2.7-10.2-4.4c-2.6-1.4-2.5-3-0.7-5.2c6-7.4,14-12.5,21-18.6c4.2-3.7,8.9-6.7,13.5-10.1
			C425.2,349.9,425.4,349.8,425.8,349.6z"/>
		<path class="st0" d="M528.3,568.1c-2.7-1.3-5.2-2.3-7.6-3.6c-5.1-2.8-10.2-5.8-15.3-8.7c-1.4-0.8-2.8-1.6-4.1-2.5
			c-1.6-1.1-2.2-3.7-1.2-5.3c2.1-3,4.4-5.9,6.8-8.7c2.5-2.8,5.3-5.4,7.9-8.1c1.3-1.4,1.9-0.8,2.3,0.8c2.4,8.5,4.9,16.9,7.4,25.3
			c1,3.1,2.3,6.1,3.5,9.2C528.2,566.9,528.2,567.3,528.3,568.1z"/>
		<path class="st0" d="M314.7,269.2c0.1,1.4,0.2,2.8,0.2,4.2c0,1.9-0.2,3.8-0.2,5.7c-0.1,2.9-0.3,5.7-0.3,8.6
			c-0.1,6.8-0.1,13.5-0.1,20.3c0,1.7-0.1,3.5,0.2,5.2c0.7,4.8,1.6,9.7,2.5,14.5c1,5.7,2.3,11.3,2.9,17c0.6,5.9,2.4,11.4,4.5,16.9
			c1.2,3.1,1.5,6.6,2.1,9.9c0.1,0.4-0.4,0.8-0.4,0.9c-0.6,24.4,4.5,48.3,5.9,72.4c-0.2,0.1-0.4,0.2-0.6,0.3
			c-0.9-0.8-1.9-1.6-2.6-2.5c-8.4-10.3-18-19.4-29-27c-5.3-3.7-10.6-7.5-16.1-10.8c-4.8-2.8-10-5.1-15.1-7.5
			c-5.7-2.7-11.4-5.3-17.2-7.8c-1.6-0.7-1.6-1.3-0.5-2.5c3.8-4,5.1-9,6.3-14.3c1.3-5.8,3.3-11.5,4.8-17.3c2-7.3,3.8-14.6,5.7-21.9
			c2.2-8.4,4.4-16.8,6.6-25.2c1.4-5.1,2.8-10.1,4.3-15.1c2.2-6.9,4.6-13.7,6.8-20.6c1.6-4.9,3.1-9.9,4.8-14.8
			c3.4-10.2,6.9-20.4,10.3-30.6c1.6-4.9,3-10,4.3-15c1.2-4.6,2.4-9.3,3.4-13.9c0.3-1.5-0.1-3.2-0.3-4.8c-0.8,10.8-5.4,20.5-8.4,30.7
			c-2.1,6.9-4.4,13.8-6.7,20.6c-3.7,11.1-7.6,22.1-11.2,33.2c-3.7,11.6-7.4,23.2-10.7,34.9c-4,14.1-7.5,28.2-11.2,42.3
			c-1.1,4.1-2.6,8-3.7,12.1c-0.5,1.9-0.4,4-1,6c-0.7,2.8-1.7,5.6-2.7,8.3c-0.1,0.3-1.3,0.6-1.7,0.4c-1.7-0.8-3.4-1.8-5-2.8
			c-3.5-2.3-6.9-4.7-10.3-7.1c-1.3-0.9-2.7-1.9-3.6-3.2c-0.4-0.6-0.2-1.9,0.1-2.8c2.8-7.6,5.8-15.2,8.6-22.8
			c3.5-9.2,6.9-18.5,10.4-27.7c4.4-11.6,8.8-23.3,13.4-34.8c3.9-9.7,8-19.3,12.3-28.9c2.7-6.2,6-12.1,8.7-18.2
			c3.2-7.4,6.2-14.9,9-22.5c2.5-7,4.5-14.2,7-21.2c1.3-3.8,3-7.4,4.4-11.2c1.9-4.8,3.6-9.7,5.6-14.5c1.1-2.5,3.4-2.6,5-0.3
			c1.3,1.9,2.2,4,3.3,6.1c0.5,0.9,1.3,1.6,1.6,2.6c0.4,1.4,0.5,2.8,0.8,4.3c1.1,7,1.9,14.1,3.2,21.1c1.3,7.2,3,14.4,4.7,21.6
			c2.1,9.2,4.5,18.4,6.5,27.6c1.3,5.6,2.2,11.4,3.2,17c0.1,0.8,0.4,1.5,0.6,2.3c2,6.8,3.9,13.7,5.8,20.5c1.2,4.5,2.4,9,3.5,13.6
			c2.5,10.1,5,20.2,7.3,30.4c2.4,10.9,4.3,22,6.7,32.9c2.5,11.5,5.2,22.9,7.9,34.3c2.9,12.6,6.1,25.1,8.9,37.6
			c2.9,13.1,5.3,26.3,8.2,39.4c1.2,5.5,3.2,10.8,5,16.1c0.7,1.9,0.8,3.2-1,4.7c-5.8,4.5-11.5,9.2-17.2,13.8
			c-6.8,5.6-13.5,11.3-20.4,16.7c-2.6,2-5.9,3.2-8.9,4.7c-1.6,0.8-2.5-0.2-2.7-1.6c-0.5-3.3-0.8-6.6-1.3-9.9
			c-0.5-3.4-1-6.8-1.5-10.1c-1.7-12.6-3.6-25.2-4.9-37.8c-0.9-8.7-0.6-17.6-1.3-26.4c-0.8-10-2.2-19.9-3.2-29.8
			c-0.8-7.9-1.6-15.7-2.2-23.6c-0.5-7.2-0.2-14.5-1-21.7c-0.5-4.2-2.2-8.4-3.6-12.5c-1.6-4.6-2.8-9.3-3.2-14.3
			c-0.3-3.9-1.3-7.8-1.9-11.7c-0.7-4.2-0.7-8.6-2-12.6c-2-6.4-0.5-12.8-0.7-19.2c-0.2-5.4-0.5-10.9-0.6-16.3c0-1.4,0.6-2.8,0.5-4.3
			c-0.1-3.4-0.5-6.8-0.8-10.3C315.4,269.1,315,269.2,314.7,269.2z M315,166.7c-0.2,0-0.5,0-0.7,0c0.3,4.1,0.5,8.2,0.7,10.7
			C315,175,315,170.8,315,166.7z"/>
		<path class="st0" d="M371.9,558.8c-3-3.9-5.5-7.5-8.3-10.7c-3.2-3.8-6.8-7.2-10.2-10.8c-1.1-1.2-2.3-2.4-3.3-3.7
			c-0.3-0.3-0.1-1.4,0.2-1.6c6.3-4.7,12.7-9.2,18.9-13.9c2.8-2.2,5.3-4.8,8-7.1c2.9-2.5,5.9-4.9,8.9-7.3c0.5-0.4,1.1-0.8,2-1.4
			C382.8,521.2,374.7,539,371.9,558.8z"/>
		<path d="M315,166.7c0,4.1,0,8.2,0,10.8c-0.2-2.5-0.4-6.6-0.7-10.7C314.5,166.7,314.8,166.7,315,166.7z"/>
	</g>
</g>
</svg>
